G75*
%MOIN*%
%OFA0B0*%
%FSLAX24Y24*%
%IPPOS*%
%LPD*%
%AMOC8*
5,1,8,0,0,1.08239X$1,22.5*
%
%ADD10C,0.0000*%
%ADD11C,0.0160*%
%ADD12C,0.0040*%
%ADD13C,0.0060*%
%ADD14R,0.0200X0.0150*%
%ADD15R,0.0150X0.0200*%
%ADD16C,0.0050*%
D10*
X000580Y001180D02*
X000582Y001229D01*
X000588Y001277D01*
X000598Y001325D01*
X000612Y001372D01*
X000629Y001418D01*
X000650Y001462D01*
X000675Y001504D01*
X000703Y001544D01*
X000735Y001582D01*
X000769Y001617D01*
X000806Y001649D01*
X000845Y001678D01*
X000887Y001704D01*
X000931Y001726D01*
X000976Y001744D01*
X001023Y001759D01*
X001070Y001770D01*
X001119Y001777D01*
X001168Y001780D01*
X001217Y001779D01*
X001265Y001774D01*
X001314Y001765D01*
X001361Y001752D01*
X001407Y001735D01*
X001451Y001715D01*
X001494Y001691D01*
X001535Y001664D01*
X001573Y001633D01*
X001609Y001600D01*
X001641Y001564D01*
X001671Y001525D01*
X001698Y001484D01*
X001721Y001440D01*
X001740Y001395D01*
X001756Y001349D01*
X001768Y001302D01*
X001776Y001253D01*
X001780Y001204D01*
X001780Y001156D01*
X001776Y001107D01*
X001768Y001058D01*
X001756Y001011D01*
X001740Y000965D01*
X001721Y000920D01*
X001698Y000876D01*
X001671Y000835D01*
X001641Y000796D01*
X001609Y000760D01*
X001573Y000727D01*
X001535Y000696D01*
X001494Y000669D01*
X001451Y000645D01*
X001407Y000625D01*
X001361Y000608D01*
X001314Y000595D01*
X001265Y000586D01*
X001217Y000581D01*
X001168Y000580D01*
X001119Y000583D01*
X001070Y000590D01*
X001023Y000601D01*
X000976Y000616D01*
X000931Y000634D01*
X000887Y000656D01*
X000845Y000682D01*
X000806Y000711D01*
X000769Y000743D01*
X000735Y000778D01*
X000703Y000816D01*
X000675Y000856D01*
X000650Y000898D01*
X000629Y000942D01*
X000612Y000988D01*
X000598Y001035D01*
X000588Y001083D01*
X000582Y001131D01*
X000580Y001180D01*
X000580Y018680D02*
X000582Y018729D01*
X000588Y018777D01*
X000598Y018825D01*
X000612Y018872D01*
X000629Y018918D01*
X000650Y018962D01*
X000675Y019004D01*
X000703Y019044D01*
X000735Y019082D01*
X000769Y019117D01*
X000806Y019149D01*
X000845Y019178D01*
X000887Y019204D01*
X000931Y019226D01*
X000976Y019244D01*
X001023Y019259D01*
X001070Y019270D01*
X001119Y019277D01*
X001168Y019280D01*
X001217Y019279D01*
X001265Y019274D01*
X001314Y019265D01*
X001361Y019252D01*
X001407Y019235D01*
X001451Y019215D01*
X001494Y019191D01*
X001535Y019164D01*
X001573Y019133D01*
X001609Y019100D01*
X001641Y019064D01*
X001671Y019025D01*
X001698Y018984D01*
X001721Y018940D01*
X001740Y018895D01*
X001756Y018849D01*
X001768Y018802D01*
X001776Y018753D01*
X001780Y018704D01*
X001780Y018656D01*
X001776Y018607D01*
X001768Y018558D01*
X001756Y018511D01*
X001740Y018465D01*
X001721Y018420D01*
X001698Y018376D01*
X001671Y018335D01*
X001641Y018296D01*
X001609Y018260D01*
X001573Y018227D01*
X001535Y018196D01*
X001494Y018169D01*
X001451Y018145D01*
X001407Y018125D01*
X001361Y018108D01*
X001314Y018095D01*
X001265Y018086D01*
X001217Y018081D01*
X001168Y018080D01*
X001119Y018083D01*
X001070Y018090D01*
X001023Y018101D01*
X000976Y018116D01*
X000931Y018134D01*
X000887Y018156D01*
X000845Y018182D01*
X000806Y018211D01*
X000769Y018243D01*
X000735Y018278D01*
X000703Y018316D01*
X000675Y018356D01*
X000650Y018398D01*
X000629Y018442D01*
X000612Y018488D01*
X000598Y018535D01*
X000588Y018583D01*
X000582Y018631D01*
X000580Y018680D01*
X027580Y018680D02*
X027582Y018729D01*
X027588Y018777D01*
X027598Y018825D01*
X027612Y018872D01*
X027629Y018918D01*
X027650Y018962D01*
X027675Y019004D01*
X027703Y019044D01*
X027735Y019082D01*
X027769Y019117D01*
X027806Y019149D01*
X027845Y019178D01*
X027887Y019204D01*
X027931Y019226D01*
X027976Y019244D01*
X028023Y019259D01*
X028070Y019270D01*
X028119Y019277D01*
X028168Y019280D01*
X028217Y019279D01*
X028265Y019274D01*
X028314Y019265D01*
X028361Y019252D01*
X028407Y019235D01*
X028451Y019215D01*
X028494Y019191D01*
X028535Y019164D01*
X028573Y019133D01*
X028609Y019100D01*
X028641Y019064D01*
X028671Y019025D01*
X028698Y018984D01*
X028721Y018940D01*
X028740Y018895D01*
X028756Y018849D01*
X028768Y018802D01*
X028776Y018753D01*
X028780Y018704D01*
X028780Y018656D01*
X028776Y018607D01*
X028768Y018558D01*
X028756Y018511D01*
X028740Y018465D01*
X028721Y018420D01*
X028698Y018376D01*
X028671Y018335D01*
X028641Y018296D01*
X028609Y018260D01*
X028573Y018227D01*
X028535Y018196D01*
X028494Y018169D01*
X028451Y018145D01*
X028407Y018125D01*
X028361Y018108D01*
X028314Y018095D01*
X028265Y018086D01*
X028217Y018081D01*
X028168Y018080D01*
X028119Y018083D01*
X028070Y018090D01*
X028023Y018101D01*
X027976Y018116D01*
X027931Y018134D01*
X027887Y018156D01*
X027845Y018182D01*
X027806Y018211D01*
X027769Y018243D01*
X027735Y018278D01*
X027703Y018316D01*
X027675Y018356D01*
X027650Y018398D01*
X027629Y018442D01*
X027612Y018488D01*
X027598Y018535D01*
X027588Y018583D01*
X027582Y018631D01*
X027580Y018680D01*
X027580Y001180D02*
X027582Y001229D01*
X027588Y001277D01*
X027598Y001325D01*
X027612Y001372D01*
X027629Y001418D01*
X027650Y001462D01*
X027675Y001504D01*
X027703Y001544D01*
X027735Y001582D01*
X027769Y001617D01*
X027806Y001649D01*
X027845Y001678D01*
X027887Y001704D01*
X027931Y001726D01*
X027976Y001744D01*
X028023Y001759D01*
X028070Y001770D01*
X028119Y001777D01*
X028168Y001780D01*
X028217Y001779D01*
X028265Y001774D01*
X028314Y001765D01*
X028361Y001752D01*
X028407Y001735D01*
X028451Y001715D01*
X028494Y001691D01*
X028535Y001664D01*
X028573Y001633D01*
X028609Y001600D01*
X028641Y001564D01*
X028671Y001525D01*
X028698Y001484D01*
X028721Y001440D01*
X028740Y001395D01*
X028756Y001349D01*
X028768Y001302D01*
X028776Y001253D01*
X028780Y001204D01*
X028780Y001156D01*
X028776Y001107D01*
X028768Y001058D01*
X028756Y001011D01*
X028740Y000965D01*
X028721Y000920D01*
X028698Y000876D01*
X028671Y000835D01*
X028641Y000796D01*
X028609Y000760D01*
X028573Y000727D01*
X028535Y000696D01*
X028494Y000669D01*
X028451Y000645D01*
X028407Y000625D01*
X028361Y000608D01*
X028314Y000595D01*
X028265Y000586D01*
X028217Y000581D01*
X028168Y000580D01*
X028119Y000583D01*
X028070Y000590D01*
X028023Y000601D01*
X027976Y000616D01*
X027931Y000634D01*
X027887Y000656D01*
X027845Y000682D01*
X027806Y000711D01*
X027769Y000743D01*
X027735Y000778D01*
X027703Y000816D01*
X027675Y000856D01*
X027650Y000898D01*
X027629Y000942D01*
X027612Y000988D01*
X027598Y001035D01*
X027588Y001083D01*
X027582Y001131D01*
X027580Y001180D01*
D11*
X000180Y000180D02*
X000180Y019680D01*
X029180Y019680D01*
X029180Y000180D01*
X000180Y000180D01*
D12*
X003477Y000450D02*
X003477Y000910D01*
X003784Y000450D01*
X003784Y000910D01*
X003938Y000834D02*
X003938Y000527D01*
X004014Y000450D01*
X004168Y000450D01*
X004245Y000527D01*
X004398Y000603D02*
X004628Y000603D01*
X004705Y000680D01*
X004705Y000834D01*
X004628Y000910D01*
X004398Y000910D01*
X004398Y000450D01*
X004245Y000834D02*
X004168Y000910D01*
X004014Y000910D01*
X003938Y000834D01*
X004858Y000757D02*
X005012Y000910D01*
X005012Y000450D01*
X005165Y000450D02*
X004858Y000450D01*
X005319Y000680D02*
X005549Y000910D01*
X005549Y000450D01*
X005626Y000680D02*
X005319Y000680D01*
X005779Y000527D02*
X006086Y000834D01*
X006086Y000527D01*
X006009Y000450D01*
X005856Y000450D01*
X005779Y000527D01*
X005779Y000834D01*
X005856Y000910D01*
X006009Y000910D01*
X006086Y000834D01*
X006240Y000834D02*
X006316Y000910D01*
X006470Y000910D01*
X006547Y000834D01*
X006547Y000757D01*
X006240Y000450D01*
X006547Y000450D01*
X018300Y010200D02*
X018300Y010375D01*
X018358Y010434D01*
X018475Y010434D01*
X018533Y010375D01*
X018533Y010200D01*
X018533Y010317D02*
X018650Y010434D01*
X018650Y010559D02*
X018650Y010793D01*
X018650Y010676D02*
X018300Y010676D01*
X018416Y010559D01*
X018300Y010200D02*
X018650Y010200D01*
X018560Y013482D02*
X018210Y013482D01*
X018210Y013657D01*
X018268Y013715D01*
X018385Y013715D01*
X018443Y013657D01*
X018443Y013482D01*
X018443Y013599D02*
X018560Y013715D01*
X018502Y013841D02*
X018560Y013899D01*
X018560Y014016D01*
X018502Y014074D01*
X018385Y014074D01*
X018326Y014016D01*
X018326Y013958D01*
X018385Y013841D01*
X018210Y013841D01*
X018210Y014074D01*
X020700Y016200D02*
X020700Y016430D01*
X020776Y016507D01*
X021083Y016507D01*
X021160Y016430D01*
X021160Y016200D01*
X020700Y016200D01*
X020700Y016660D02*
X021160Y016660D01*
X020930Y016660D02*
X020930Y016967D01*
X020700Y016967D02*
X021160Y016967D01*
X021160Y017274D02*
X020700Y017274D01*
X020700Y017121D02*
X020700Y017428D01*
X020776Y017581D02*
X020700Y017658D01*
X020700Y017811D01*
X020776Y017888D01*
X020853Y017888D01*
X021160Y017581D01*
X021160Y017888D01*
X021160Y018042D02*
X020853Y018348D01*
X020776Y018348D01*
X020700Y018272D01*
X020700Y018118D01*
X020776Y018042D01*
X021160Y018042D02*
X021160Y018348D01*
X017150Y018084D02*
X017150Y017930D01*
X017074Y017853D01*
X016844Y017853D01*
X016844Y017700D02*
X016844Y018160D01*
X017074Y018160D01*
X017150Y018084D01*
X016690Y018084D02*
X016690Y018007D01*
X016613Y017930D01*
X016460Y017930D01*
X016383Y018007D01*
X016383Y018084D01*
X016460Y018160D01*
X016613Y018160D01*
X016690Y018084D01*
X016613Y017930D02*
X016690Y017853D01*
X016690Y017777D01*
X016613Y017700D01*
X016460Y017700D01*
X016383Y017777D01*
X016383Y017853D01*
X016460Y017930D01*
X016230Y018007D02*
X016230Y018084D01*
X016153Y018160D01*
X015999Y018160D01*
X015923Y018084D01*
X015769Y018084D02*
X015769Y018007D01*
X015693Y017930D01*
X015769Y017853D01*
X015769Y017777D01*
X015693Y017700D01*
X015539Y017700D01*
X015462Y017777D01*
X015309Y017700D02*
X015309Y018007D01*
X015155Y018160D01*
X015002Y018007D01*
X015002Y017700D01*
X014848Y017777D02*
X014848Y017930D01*
X014695Y017930D01*
X014542Y017777D02*
X014618Y017700D01*
X014772Y017700D01*
X014848Y017777D01*
X015002Y017930D02*
X015309Y017930D01*
X015462Y018084D02*
X015539Y018160D01*
X015693Y018160D01*
X015769Y018084D01*
X015693Y017930D02*
X015616Y017930D01*
X015923Y017700D02*
X016230Y018007D01*
X016230Y017700D02*
X015923Y017700D01*
X014848Y018084D02*
X014772Y018160D01*
X014618Y018160D01*
X014542Y018084D01*
X014542Y017777D01*
X014388Y017700D02*
X014081Y017700D01*
X014081Y018160D01*
X014388Y018160D01*
X014235Y017930D02*
X014081Y017930D01*
X013928Y018160D02*
X013928Y017700D01*
X013621Y017700D02*
X013621Y018160D01*
X013774Y018007D01*
X013928Y018160D01*
X013467Y018160D02*
X013160Y018160D01*
X013314Y018160D02*
X013314Y017700D01*
X013007Y017700D02*
X013007Y018007D01*
X012853Y018160D01*
X012700Y018007D01*
X012700Y017700D01*
X012700Y017930D02*
X013007Y017930D01*
X008793Y018385D02*
X008559Y018385D01*
X008734Y018560D01*
X008734Y018210D01*
X008434Y018210D02*
X008317Y018327D01*
X008375Y018327D02*
X008200Y018327D01*
X008200Y018210D02*
X008200Y018560D01*
X008375Y018560D01*
X008434Y018502D01*
X008434Y018385D01*
X008375Y018327D01*
X008375Y017060D02*
X008200Y017060D01*
X008200Y016710D01*
X008200Y016827D02*
X008375Y016827D01*
X008434Y016885D01*
X008434Y017002D01*
X008375Y017060D01*
X008559Y017002D02*
X008617Y017060D01*
X008734Y017060D01*
X008793Y017002D01*
X008793Y016944D01*
X008734Y016885D01*
X008793Y016827D01*
X008793Y016768D01*
X008734Y016710D01*
X008617Y016710D01*
X008559Y016768D01*
X008434Y016710D02*
X008317Y016827D01*
X008676Y016885D02*
X008734Y016885D01*
X008734Y015560D02*
X008617Y015560D01*
X008559Y015502D01*
X008434Y015502D02*
X008434Y015385D01*
X008375Y015327D01*
X008200Y015327D01*
X008317Y015327D02*
X008434Y015210D01*
X008559Y015210D02*
X008793Y015444D01*
X008793Y015502D01*
X008734Y015560D01*
X008434Y015502D02*
X008375Y015560D01*
X008200Y015560D01*
X008200Y015210D01*
X008559Y015210D02*
X008793Y015210D01*
X006848Y014160D02*
X006542Y014160D01*
X006542Y013930D01*
X006695Y014007D01*
X006772Y014007D01*
X006848Y013930D01*
X006848Y013777D01*
X006772Y013700D01*
X006618Y013700D01*
X006542Y013777D01*
X006388Y013777D02*
X006311Y013700D01*
X006158Y013700D01*
X006081Y013777D01*
X006081Y013930D01*
X006311Y013930D01*
X006388Y013853D01*
X006388Y013777D01*
X006235Y014084D02*
X006081Y013930D01*
X005928Y013930D02*
X005621Y013930D01*
X005467Y014084D02*
X005467Y014160D01*
X005467Y014084D02*
X005314Y013930D01*
X005314Y013700D01*
X005007Y013777D02*
X005007Y013930D01*
X004853Y013930D01*
X004700Y013777D02*
X004700Y014084D01*
X004777Y014160D01*
X004930Y014160D01*
X005007Y014084D01*
X005160Y014084D02*
X005314Y013930D01*
X005160Y014084D02*
X005160Y014160D01*
X005007Y013777D02*
X004930Y013700D01*
X004777Y013700D01*
X004700Y013777D01*
X006235Y014084D02*
X006388Y014160D01*
X006193Y018700D02*
X005962Y018700D01*
X005962Y019160D01*
X006193Y019160D01*
X006269Y019084D01*
X006269Y018777D01*
X006193Y018700D01*
X005809Y018700D02*
X005502Y018700D01*
X005502Y019160D01*
X005809Y019160D01*
X005655Y018930D02*
X005502Y018930D01*
X005348Y018700D02*
X005042Y018700D01*
X005042Y019160D01*
X004428Y019084D02*
X004428Y019007D01*
X004351Y018930D01*
X004121Y018930D01*
X003967Y018930D02*
X003967Y018777D01*
X003891Y018700D01*
X003737Y018700D01*
X003660Y018777D01*
X003660Y019084D01*
X003737Y019160D01*
X003891Y019160D01*
X003967Y019084D01*
X003967Y018930D02*
X003814Y018930D01*
X003507Y018930D02*
X003430Y018853D01*
X003200Y018853D01*
X003200Y018700D02*
X003200Y019160D01*
X003430Y019160D01*
X003507Y019084D01*
X003507Y018930D01*
X003353Y018853D02*
X003507Y018700D01*
X004121Y018700D02*
X004351Y018700D01*
X004428Y018777D01*
X004428Y018853D01*
X004351Y018930D01*
X004428Y019084D02*
X004351Y019160D01*
X004121Y019160D01*
X004121Y018700D01*
D13*
X008180Y017980D02*
X008180Y017380D01*
X008182Y017363D01*
X008186Y017346D01*
X008193Y017330D01*
X008203Y017316D01*
X008216Y017303D01*
X008230Y017293D01*
X008246Y017286D01*
X008263Y017282D01*
X008280Y017280D01*
X008430Y017280D01*
X008480Y017330D01*
X009880Y017330D01*
X009930Y017280D01*
X010080Y017280D01*
X010097Y017282D01*
X010114Y017286D01*
X010130Y017293D01*
X010144Y017303D01*
X010157Y017316D01*
X010167Y017330D01*
X010174Y017346D01*
X010178Y017363D01*
X010180Y017380D01*
X010180Y017980D01*
X010178Y017997D01*
X010174Y018014D01*
X010167Y018030D01*
X010157Y018044D01*
X010144Y018057D01*
X010130Y018067D01*
X010114Y018074D01*
X010097Y018078D01*
X010080Y018080D01*
X009930Y018080D01*
X009880Y018030D01*
X008480Y018030D01*
X008430Y018080D01*
X008280Y018080D01*
X008263Y018078D01*
X008246Y018074D01*
X008230Y018067D01*
X008216Y018057D01*
X008203Y018044D01*
X008193Y018030D01*
X008186Y018014D01*
X008182Y017997D01*
X008180Y017980D01*
X008280Y016580D02*
X008430Y016580D01*
X008480Y016530D01*
X009880Y016530D01*
X009930Y016580D01*
X010080Y016580D01*
X010097Y016578D01*
X010114Y016574D01*
X010130Y016567D01*
X010144Y016557D01*
X010157Y016544D01*
X010167Y016530D01*
X010174Y016514D01*
X010178Y016497D01*
X010180Y016480D01*
X010180Y015880D01*
X010178Y015863D01*
X010174Y015846D01*
X010167Y015830D01*
X010157Y015816D01*
X010144Y015803D01*
X010130Y015793D01*
X010114Y015786D01*
X010097Y015782D01*
X010080Y015780D01*
X009930Y015780D01*
X009880Y015830D01*
X008480Y015830D01*
X008430Y015780D01*
X008280Y015780D01*
X008263Y015782D01*
X008246Y015786D01*
X008230Y015793D01*
X008216Y015803D01*
X008203Y015816D01*
X008193Y015830D01*
X008186Y015846D01*
X008182Y015863D01*
X008180Y015880D01*
X008180Y016480D01*
X008182Y016497D01*
X008186Y016514D01*
X008193Y016530D01*
X008203Y016544D01*
X008216Y016557D01*
X008230Y016567D01*
X008246Y016574D01*
X008263Y016578D01*
X008280Y016580D01*
X008280Y015080D02*
X008430Y015080D01*
X008480Y015030D01*
X009880Y015030D01*
X009930Y015080D01*
X010080Y015080D01*
X010097Y015078D01*
X010114Y015074D01*
X010130Y015067D01*
X010144Y015057D01*
X010157Y015044D01*
X010167Y015030D01*
X010174Y015014D01*
X010178Y014997D01*
X010180Y014980D01*
X010180Y014380D01*
X010178Y014363D01*
X010174Y014346D01*
X010167Y014330D01*
X010157Y014316D01*
X010144Y014303D01*
X010130Y014293D01*
X010114Y014286D01*
X010097Y014282D01*
X010080Y014280D01*
X009930Y014280D01*
X009880Y014330D01*
X008480Y014330D01*
X008430Y014280D01*
X008280Y014280D01*
X008263Y014282D01*
X008246Y014286D01*
X008230Y014293D01*
X008216Y014303D01*
X008203Y014316D01*
X008193Y014330D01*
X008186Y014346D01*
X008182Y014363D01*
X008180Y014380D01*
X008180Y014980D01*
X008182Y014997D01*
X008186Y015014D01*
X008193Y015030D01*
X008203Y015044D01*
X008216Y015057D01*
X008230Y015067D01*
X008246Y015074D01*
X008263Y015078D01*
X008280Y015080D01*
X017280Y014080D02*
X017280Y013930D01*
X017330Y013880D01*
X017330Y012480D01*
X017280Y012430D01*
X017280Y012280D01*
X017282Y012263D01*
X017286Y012246D01*
X017293Y012230D01*
X017303Y012216D01*
X017316Y012203D01*
X017330Y012193D01*
X017346Y012186D01*
X017363Y012182D01*
X017380Y012180D01*
X017980Y012180D01*
X017997Y012182D01*
X018014Y012186D01*
X018030Y012193D01*
X018044Y012203D01*
X018057Y012216D01*
X018067Y012230D01*
X018074Y012246D01*
X018078Y012263D01*
X018080Y012280D01*
X018080Y012430D01*
X018030Y012480D01*
X018030Y013880D01*
X018080Y013930D01*
X018080Y014080D01*
X018078Y014097D01*
X018074Y014114D01*
X018067Y014130D01*
X018057Y014144D01*
X018044Y014157D01*
X018030Y014167D01*
X018014Y014174D01*
X017997Y014178D01*
X017980Y014180D01*
X017380Y014180D01*
X017363Y014178D01*
X017346Y014174D01*
X017330Y014167D01*
X017316Y014157D01*
X017303Y014144D01*
X017293Y014130D01*
X017286Y014114D01*
X017282Y014097D01*
X017280Y014080D01*
X018880Y012180D02*
X019480Y012180D01*
X019497Y012178D01*
X019514Y012174D01*
X019530Y012167D01*
X019544Y012157D01*
X019557Y012144D01*
X019567Y012130D01*
X019574Y012114D01*
X019578Y012097D01*
X019580Y012080D01*
X019580Y011930D01*
X019530Y011880D01*
X019530Y010480D01*
X019580Y010430D01*
X019580Y010280D01*
X019578Y010263D01*
X019574Y010246D01*
X019567Y010230D01*
X019557Y010216D01*
X019544Y010203D01*
X019530Y010193D01*
X019514Y010186D01*
X019497Y010182D01*
X019480Y010180D01*
X018880Y010180D01*
X018863Y010182D01*
X018846Y010186D01*
X018830Y010193D01*
X018816Y010203D01*
X018803Y010216D01*
X018793Y010230D01*
X018786Y010246D01*
X018782Y010263D01*
X018780Y010280D01*
X018780Y010430D01*
X018830Y010480D01*
X018830Y011880D01*
X018780Y011930D01*
X018780Y012080D01*
X018782Y012097D01*
X018786Y012114D01*
X018793Y012130D01*
X018803Y012144D01*
X018816Y012157D01*
X018830Y012167D01*
X018846Y012174D01*
X018863Y012178D01*
X018880Y012180D01*
X010930Y002180D02*
X010430Y002180D01*
X010180Y001930D01*
X010180Y001430D01*
X009930Y001180D01*
X009430Y001180D01*
X009180Y001430D01*
X009180Y001930D01*
X009430Y002180D01*
X009930Y002180D01*
X010180Y001930D01*
X010180Y001430D01*
X010430Y001180D01*
X010930Y001180D01*
X011180Y001430D01*
X011180Y001930D01*
X010930Y002180D01*
D14*
X019180Y010105D03*
X017680Y012105D03*
X019180Y012255D03*
X017680Y014255D03*
D15*
X010255Y014680D03*
X008105Y014680D03*
X008105Y016180D03*
X010255Y016180D03*
X010255Y017680D03*
X008105Y017680D03*
D16*
X009175Y002875D02*
X009175Y002575D01*
X009325Y002425D01*
X009475Y002575D01*
X009475Y002875D01*
X009635Y002875D02*
X009786Y002875D01*
X009710Y002875D02*
X009710Y002425D01*
X009635Y002425D02*
X009786Y002425D01*
X009942Y002425D02*
X009942Y002875D01*
X010243Y002425D01*
X010243Y002875D01*
X010175Y002875D02*
X010175Y002575D01*
X010325Y002425D01*
X010475Y002575D01*
X010475Y002875D01*
X010478Y002875D02*
X010403Y002800D01*
X010478Y002875D02*
X010628Y002875D01*
X010703Y002800D01*
X010703Y002725D01*
X010403Y002425D01*
X010703Y002425D01*
X010710Y002425D02*
X010710Y002875D01*
X010635Y002875D02*
X010786Y002875D01*
X010942Y002875D02*
X011243Y002425D01*
X011243Y002875D01*
X011403Y002725D02*
X011553Y002875D01*
X011553Y002425D01*
X011403Y002425D02*
X011703Y002425D01*
X010942Y002425D02*
X010942Y002875D01*
X010786Y002425D02*
X010635Y002425D01*
M02*
