G75*
%MOIN*%
%OFA0B0*%
%FSLAX24Y24*%
%IPPOS*%
%LPD*%
%AMOC8*
5,1,8,0,0,1.08239X$1,22.5*
%
%ADD10C,0.0000*%
%ADD11C,0.0080*%
%ADD12C,0.0160*%
%ADD13R,0.0515X0.0515*%
%ADD14OC8,0.0520*%
%ADD15OC8,0.0600*%
%ADD16R,0.0356X0.0356*%
D10*
X000580Y001180D02*
X000582Y001229D01*
X000588Y001277D01*
X000598Y001325D01*
X000612Y001372D01*
X000629Y001418D01*
X000650Y001462D01*
X000675Y001504D01*
X000703Y001544D01*
X000735Y001582D01*
X000769Y001617D01*
X000806Y001649D01*
X000845Y001678D01*
X000887Y001704D01*
X000931Y001726D01*
X000976Y001744D01*
X001023Y001759D01*
X001070Y001770D01*
X001119Y001777D01*
X001168Y001780D01*
X001217Y001779D01*
X001265Y001774D01*
X001314Y001765D01*
X001361Y001752D01*
X001407Y001735D01*
X001451Y001715D01*
X001494Y001691D01*
X001535Y001664D01*
X001573Y001633D01*
X001609Y001600D01*
X001641Y001564D01*
X001671Y001525D01*
X001698Y001484D01*
X001721Y001440D01*
X001740Y001395D01*
X001756Y001349D01*
X001768Y001302D01*
X001776Y001253D01*
X001780Y001204D01*
X001780Y001156D01*
X001776Y001107D01*
X001768Y001058D01*
X001756Y001011D01*
X001740Y000965D01*
X001721Y000920D01*
X001698Y000876D01*
X001671Y000835D01*
X001641Y000796D01*
X001609Y000760D01*
X001573Y000727D01*
X001535Y000696D01*
X001494Y000669D01*
X001451Y000645D01*
X001407Y000625D01*
X001361Y000608D01*
X001314Y000595D01*
X001265Y000586D01*
X001217Y000581D01*
X001168Y000580D01*
X001119Y000583D01*
X001070Y000590D01*
X001023Y000601D01*
X000976Y000616D01*
X000931Y000634D01*
X000887Y000656D01*
X000845Y000682D01*
X000806Y000711D01*
X000769Y000743D01*
X000735Y000778D01*
X000703Y000816D01*
X000675Y000856D01*
X000650Y000898D01*
X000629Y000942D01*
X000612Y000988D01*
X000598Y001035D01*
X000588Y001083D01*
X000582Y001131D01*
X000580Y001180D01*
X000580Y018680D02*
X000582Y018729D01*
X000588Y018777D01*
X000598Y018825D01*
X000612Y018872D01*
X000629Y018918D01*
X000650Y018962D01*
X000675Y019004D01*
X000703Y019044D01*
X000735Y019082D01*
X000769Y019117D01*
X000806Y019149D01*
X000845Y019178D01*
X000887Y019204D01*
X000931Y019226D01*
X000976Y019244D01*
X001023Y019259D01*
X001070Y019270D01*
X001119Y019277D01*
X001168Y019280D01*
X001217Y019279D01*
X001265Y019274D01*
X001314Y019265D01*
X001361Y019252D01*
X001407Y019235D01*
X001451Y019215D01*
X001494Y019191D01*
X001535Y019164D01*
X001573Y019133D01*
X001609Y019100D01*
X001641Y019064D01*
X001671Y019025D01*
X001698Y018984D01*
X001721Y018940D01*
X001740Y018895D01*
X001756Y018849D01*
X001768Y018802D01*
X001776Y018753D01*
X001780Y018704D01*
X001780Y018656D01*
X001776Y018607D01*
X001768Y018558D01*
X001756Y018511D01*
X001740Y018465D01*
X001721Y018420D01*
X001698Y018376D01*
X001671Y018335D01*
X001641Y018296D01*
X001609Y018260D01*
X001573Y018227D01*
X001535Y018196D01*
X001494Y018169D01*
X001451Y018145D01*
X001407Y018125D01*
X001361Y018108D01*
X001314Y018095D01*
X001265Y018086D01*
X001217Y018081D01*
X001168Y018080D01*
X001119Y018083D01*
X001070Y018090D01*
X001023Y018101D01*
X000976Y018116D01*
X000931Y018134D01*
X000887Y018156D01*
X000845Y018182D01*
X000806Y018211D01*
X000769Y018243D01*
X000735Y018278D01*
X000703Y018316D01*
X000675Y018356D01*
X000650Y018398D01*
X000629Y018442D01*
X000612Y018488D01*
X000598Y018535D01*
X000588Y018583D01*
X000582Y018631D01*
X000580Y018680D01*
X027580Y018680D02*
X027582Y018729D01*
X027588Y018777D01*
X027598Y018825D01*
X027612Y018872D01*
X027629Y018918D01*
X027650Y018962D01*
X027675Y019004D01*
X027703Y019044D01*
X027735Y019082D01*
X027769Y019117D01*
X027806Y019149D01*
X027845Y019178D01*
X027887Y019204D01*
X027931Y019226D01*
X027976Y019244D01*
X028023Y019259D01*
X028070Y019270D01*
X028119Y019277D01*
X028168Y019280D01*
X028217Y019279D01*
X028265Y019274D01*
X028314Y019265D01*
X028361Y019252D01*
X028407Y019235D01*
X028451Y019215D01*
X028494Y019191D01*
X028535Y019164D01*
X028573Y019133D01*
X028609Y019100D01*
X028641Y019064D01*
X028671Y019025D01*
X028698Y018984D01*
X028721Y018940D01*
X028740Y018895D01*
X028756Y018849D01*
X028768Y018802D01*
X028776Y018753D01*
X028780Y018704D01*
X028780Y018656D01*
X028776Y018607D01*
X028768Y018558D01*
X028756Y018511D01*
X028740Y018465D01*
X028721Y018420D01*
X028698Y018376D01*
X028671Y018335D01*
X028641Y018296D01*
X028609Y018260D01*
X028573Y018227D01*
X028535Y018196D01*
X028494Y018169D01*
X028451Y018145D01*
X028407Y018125D01*
X028361Y018108D01*
X028314Y018095D01*
X028265Y018086D01*
X028217Y018081D01*
X028168Y018080D01*
X028119Y018083D01*
X028070Y018090D01*
X028023Y018101D01*
X027976Y018116D01*
X027931Y018134D01*
X027887Y018156D01*
X027845Y018182D01*
X027806Y018211D01*
X027769Y018243D01*
X027735Y018278D01*
X027703Y018316D01*
X027675Y018356D01*
X027650Y018398D01*
X027629Y018442D01*
X027612Y018488D01*
X027598Y018535D01*
X027588Y018583D01*
X027582Y018631D01*
X027580Y018680D01*
X027580Y001180D02*
X027582Y001229D01*
X027588Y001277D01*
X027598Y001325D01*
X027612Y001372D01*
X027629Y001418D01*
X027650Y001462D01*
X027675Y001504D01*
X027703Y001544D01*
X027735Y001582D01*
X027769Y001617D01*
X027806Y001649D01*
X027845Y001678D01*
X027887Y001704D01*
X027931Y001726D01*
X027976Y001744D01*
X028023Y001759D01*
X028070Y001770D01*
X028119Y001777D01*
X028168Y001780D01*
X028217Y001779D01*
X028265Y001774D01*
X028314Y001765D01*
X028361Y001752D01*
X028407Y001735D01*
X028451Y001715D01*
X028494Y001691D01*
X028535Y001664D01*
X028573Y001633D01*
X028609Y001600D01*
X028641Y001564D01*
X028671Y001525D01*
X028698Y001484D01*
X028721Y001440D01*
X028740Y001395D01*
X028756Y001349D01*
X028768Y001302D01*
X028776Y001253D01*
X028780Y001204D01*
X028780Y001156D01*
X028776Y001107D01*
X028768Y001058D01*
X028756Y001011D01*
X028740Y000965D01*
X028721Y000920D01*
X028698Y000876D01*
X028671Y000835D01*
X028641Y000796D01*
X028609Y000760D01*
X028573Y000727D01*
X028535Y000696D01*
X028494Y000669D01*
X028451Y000645D01*
X028407Y000625D01*
X028361Y000608D01*
X028314Y000595D01*
X028265Y000586D01*
X028217Y000581D01*
X028168Y000580D01*
X028119Y000583D01*
X028070Y000590D01*
X028023Y000601D01*
X027976Y000616D01*
X027931Y000634D01*
X027887Y000656D01*
X027845Y000682D01*
X027806Y000711D01*
X027769Y000743D01*
X027735Y000778D01*
X027703Y000816D01*
X027675Y000856D01*
X027650Y000898D01*
X027629Y000942D01*
X027612Y000988D01*
X027598Y001035D01*
X027588Y001083D01*
X027582Y001131D01*
X027580Y001180D01*
D11*
X027527Y003977D02*
X027527Y004438D01*
X027680Y004591D01*
X027987Y004591D01*
X028141Y004438D01*
X028141Y003977D01*
X027220Y003977D01*
X027220Y004898D02*
X027220Y005205D01*
X027220Y005052D02*
X027834Y005052D01*
X027834Y004898D01*
X028141Y005052D02*
X028294Y005052D01*
X028141Y005512D02*
X027220Y005512D01*
X027527Y005819D01*
X027220Y006126D01*
X028141Y006126D01*
X027680Y006433D02*
X027834Y006586D01*
X027834Y006893D01*
X027680Y007047D01*
X027527Y007047D01*
X027527Y006433D01*
X027680Y006433D02*
X027373Y006433D01*
X027220Y006586D01*
X027220Y006893D01*
X027373Y007354D02*
X027220Y007507D01*
X027220Y007968D01*
X027680Y007968D01*
X027834Y007814D01*
X027834Y007507D01*
X027527Y007507D02*
X027527Y007968D01*
X027834Y008274D02*
X027834Y008581D01*
X027987Y008428D02*
X027373Y008428D01*
X027220Y008581D01*
X027220Y008888D02*
X028141Y008888D01*
X027834Y009042D02*
X027834Y009349D01*
X027680Y009502D01*
X027220Y009502D01*
X027373Y009809D02*
X027680Y009809D01*
X027834Y009963D01*
X027834Y010270D01*
X027680Y010423D01*
X027527Y010423D01*
X027527Y009809D01*
X027373Y009809D02*
X027220Y009963D01*
X027220Y010270D01*
X027220Y010730D02*
X027834Y010730D01*
X027834Y011037D02*
X027834Y011190D01*
X027834Y011037D02*
X027527Y010730D01*
X027373Y012418D02*
X027987Y013032D01*
X027373Y013032D01*
X027220Y012878D01*
X027220Y012571D01*
X027373Y012418D01*
X027987Y012418D01*
X028141Y012571D01*
X028141Y012878D01*
X027987Y013032D01*
X027373Y013339D02*
X027373Y013492D01*
X027220Y013492D01*
X027220Y013339D01*
X027373Y013339D01*
X027220Y013799D02*
X027834Y014413D01*
X027987Y014413D01*
X028141Y014260D01*
X028141Y013953D01*
X027987Y013799D01*
X027220Y013799D02*
X027220Y014413D01*
X027834Y009042D02*
X027680Y008888D01*
X027527Y007507D02*
X027373Y007354D01*
D12*
X000180Y000180D02*
X000180Y019680D01*
X029180Y019680D01*
X029180Y000180D01*
X000180Y000180D01*
X001432Y000440D02*
X001622Y000519D01*
X001841Y000738D01*
X001960Y001025D01*
X001960Y001335D01*
X001841Y001622D01*
X001622Y001841D01*
X001335Y001960D01*
X001025Y001960D01*
X000738Y001841D01*
X000519Y001622D01*
X000440Y001432D01*
X000440Y018428D01*
X000519Y018238D01*
X000738Y018019D01*
X001025Y017900D01*
X001335Y017900D01*
X001622Y018019D01*
X001841Y018238D01*
X001960Y018525D01*
X001960Y018835D01*
X001841Y019122D01*
X001622Y019341D01*
X001432Y019420D01*
X027928Y019420D01*
X027738Y019341D01*
X027519Y019122D01*
X027400Y018835D01*
X027400Y018525D01*
X027519Y018238D01*
X027738Y018019D01*
X028025Y017900D01*
X028335Y017900D01*
X028622Y018019D01*
X028841Y018238D01*
X028920Y018428D01*
X028920Y001432D01*
X028841Y001622D01*
X028622Y001841D01*
X028335Y001960D01*
X028025Y001960D01*
X027738Y001841D01*
X027519Y001622D01*
X027400Y001335D01*
X027400Y001025D01*
X027519Y000738D01*
X027738Y000519D01*
X027928Y000440D01*
X001432Y000440D01*
X001569Y000497D02*
X027791Y000497D01*
X027601Y000656D02*
X001759Y000656D01*
X001873Y000814D02*
X027487Y000814D01*
X027422Y000973D02*
X001938Y000973D01*
X001960Y001131D02*
X027400Y001131D01*
X027400Y001290D02*
X010968Y001290D01*
X010879Y001200D02*
X011099Y001420D01*
X014732Y001420D01*
X014827Y001460D01*
X014900Y001533D01*
X014940Y001628D01*
X014940Y013420D01*
X015243Y013420D01*
X015243Y013348D01*
X015348Y013243D01*
X016012Y013243D01*
X016117Y013348D01*
X016117Y013920D01*
X016420Y013920D01*
X016420Y013128D01*
X016460Y013033D01*
X016533Y012960D01*
X016628Y012920D01*
X018798Y012920D01*
X018740Y012862D01*
X018740Y012498D01*
X018998Y012240D01*
X019362Y012240D01*
X019620Y012498D01*
X019620Y012862D01*
X019440Y013042D01*
X019440Y015420D01*
X021732Y015420D01*
X021827Y015460D01*
X021900Y015533D01*
X021940Y015628D01*
X021940Y016920D01*
X022243Y016920D01*
X022243Y016848D01*
X022348Y016743D01*
X023012Y016743D01*
X023117Y016848D01*
X023117Y017512D01*
X023012Y017617D01*
X022348Y017617D01*
X022243Y017512D01*
X022243Y017440D01*
X021628Y017440D01*
X021533Y017400D01*
X021460Y017327D01*
X021420Y017232D01*
X021420Y015940D01*
X020117Y015940D01*
X020117Y016180D01*
X020117Y016461D01*
X020105Y016507D01*
X020082Y016548D01*
X020048Y016582D01*
X020007Y016605D01*
X019961Y016617D01*
X019680Y016617D01*
X019680Y016180D01*
X019680Y016180D01*
X020117Y016180D01*
X019680Y016180D01*
X019680Y016180D01*
X019680Y016180D01*
X019243Y016180D01*
X019243Y015940D01*
X019128Y015940D01*
X019033Y015900D01*
X018960Y015827D01*
X018920Y015732D01*
X018920Y013440D01*
X016940Y013440D01*
X016940Y014232D01*
X016900Y014327D01*
X016827Y014400D01*
X016732Y014440D01*
X016117Y014440D01*
X016117Y015012D01*
X016012Y015117D01*
X015348Y015117D01*
X015243Y015012D01*
X015243Y014440D01*
X013628Y014440D01*
X013533Y014400D01*
X013460Y014327D01*
X013420Y014232D01*
X013420Y013940D01*
X013117Y013940D01*
X013117Y014012D01*
X013012Y014117D01*
X012348Y014117D01*
X012243Y014012D01*
X012243Y013348D01*
X012348Y013243D01*
X013012Y013243D01*
X013117Y013348D01*
X013117Y013420D01*
X013732Y013420D01*
X013827Y013460D01*
X013900Y013533D01*
X013940Y013628D01*
X013940Y013920D01*
X014580Y013920D01*
X014533Y013900D01*
X014460Y013827D01*
X014420Y013732D01*
X014420Y001940D01*
X011099Y001940D01*
X010879Y002160D01*
X010481Y002160D01*
X010200Y001879D01*
X010200Y001481D01*
X010481Y001200D01*
X010879Y001200D01*
X010392Y001290D02*
X009968Y001290D01*
X009879Y001200D02*
X010160Y001481D01*
X010160Y001879D01*
X009940Y002099D01*
X009940Y004743D01*
X010012Y004743D01*
X010117Y004848D01*
X010117Y005512D01*
X010012Y005617D01*
X009348Y005617D01*
X009243Y005512D01*
X009243Y005440D01*
X008617Y005440D01*
X008617Y005512D01*
X008512Y005617D01*
X007848Y005617D01*
X007743Y005512D01*
X007743Y004848D01*
X007848Y004743D01*
X008512Y004743D01*
X008617Y004848D01*
X008617Y004920D01*
X009243Y004920D01*
X009243Y004848D01*
X009348Y004743D01*
X009420Y004743D01*
X009420Y002099D01*
X009200Y001879D01*
X009200Y001481D01*
X009481Y001200D01*
X009879Y001200D01*
X010127Y001448D02*
X010233Y001448D01*
X010200Y001607D02*
X010160Y001607D01*
X010160Y001765D02*
X010200Y001765D01*
X010245Y001924D02*
X010115Y001924D01*
X009957Y002082D02*
X010403Y002082D01*
X010680Y001680D02*
X014680Y001680D01*
X014680Y013680D01*
X015680Y013680D01*
X016117Y013653D02*
X016420Y013653D01*
X016420Y013811D02*
X016117Y013811D01*
X016117Y013494D02*
X016420Y013494D01*
X016420Y013336D02*
X016105Y013336D01*
X016012Y013117D02*
X015348Y013117D01*
X015243Y013012D01*
X015243Y012348D01*
X015348Y012243D01*
X016012Y012243D01*
X016117Y012348D01*
X016117Y013012D01*
X016012Y013117D01*
X016111Y013019D02*
X016474Y013019D01*
X016420Y013177D02*
X014940Y013177D01*
X014940Y013019D02*
X015249Y013019D01*
X015243Y012860D02*
X014940Y012860D01*
X014940Y012702D02*
X015243Y012702D01*
X015243Y012543D02*
X014940Y012543D01*
X014940Y012385D02*
X015243Y012385D01*
X015348Y012117D02*
X015243Y012012D01*
X015243Y011348D01*
X015348Y011243D01*
X016012Y011243D01*
X016117Y011348D01*
X016117Y012012D01*
X016012Y012117D01*
X015348Y012117D01*
X015298Y012068D02*
X014940Y012068D01*
X014940Y012226D02*
X023420Y012226D01*
X023420Y012068D02*
X017915Y012068D01*
X017862Y012120D02*
X017498Y012120D01*
X017240Y011862D01*
X017240Y011498D01*
X017498Y011240D01*
X017862Y011240D01*
X018120Y011498D01*
X018120Y011862D01*
X017862Y012120D01*
X017445Y012068D02*
X016062Y012068D01*
X016117Y011909D02*
X017287Y011909D01*
X017240Y011751D02*
X016117Y011751D01*
X016117Y011592D02*
X017240Y011592D01*
X017304Y011434D02*
X016117Y011434D01*
X016045Y011275D02*
X017463Y011275D01*
X017897Y011275D02*
X023420Y011275D01*
X023420Y011117D02*
X015965Y011117D01*
X015961Y011117D02*
X015680Y011117D01*
X015399Y011117D01*
X015353Y011105D01*
X015312Y011082D01*
X015278Y011048D01*
X015255Y011007D01*
X015243Y010961D01*
X015243Y010680D01*
X015243Y010399D01*
X015255Y010353D01*
X015278Y010312D01*
X015312Y010278D01*
X015353Y010255D01*
X015399Y010243D01*
X015680Y010243D01*
X015961Y010243D01*
X016007Y010255D01*
X016048Y010278D01*
X016082Y010312D01*
X016105Y010353D01*
X016117Y010399D01*
X016117Y010680D01*
X015680Y010680D01*
X016117Y010680D01*
X016117Y010961D01*
X016105Y011007D01*
X016082Y011048D01*
X016048Y011082D01*
X016007Y011105D01*
X015961Y011117D01*
X016117Y010958D02*
X023420Y010958D01*
X023420Y010800D02*
X016117Y010800D01*
X016117Y010641D02*
X023420Y010641D01*
X023420Y010483D02*
X016117Y010483D01*
X016088Y010324D02*
X023420Y010324D01*
X023420Y010166D02*
X014940Y010166D01*
X014940Y010324D02*
X015272Y010324D01*
X015243Y010483D02*
X014940Y010483D01*
X014940Y010641D02*
X015243Y010641D01*
X015243Y010680D02*
X015680Y010680D01*
X015680Y010680D01*
X015680Y010680D01*
X015680Y011117D01*
X015680Y010680D01*
X015680Y010243D01*
X015680Y010680D01*
X015680Y010680D01*
X015680Y010680D01*
X015243Y010680D01*
X015243Y010800D02*
X014940Y010800D01*
X014940Y010958D02*
X015243Y010958D01*
X015395Y011117D02*
X014940Y011117D01*
X014940Y011275D02*
X015315Y011275D01*
X015243Y011434D02*
X014940Y011434D01*
X014940Y011592D02*
X015243Y011592D01*
X015243Y011751D02*
X014940Y011751D01*
X014940Y011909D02*
X015243Y011909D01*
X014420Y011909D02*
X013117Y011909D01*
X013117Y012012D02*
X013012Y012117D01*
X012348Y012117D01*
X012243Y012012D01*
X012243Y011348D01*
X012348Y011243D01*
X013012Y011243D01*
X013117Y011348D01*
X013117Y012012D01*
X013062Y012068D02*
X014420Y012068D01*
X014420Y012226D02*
X011440Y012226D01*
X011440Y012068D02*
X012298Y012068D01*
X012243Y011909D02*
X011440Y011909D01*
X011440Y011751D02*
X012243Y011751D01*
X012243Y011592D02*
X011440Y011592D01*
X011440Y011434D02*
X012243Y011434D01*
X012315Y011275D02*
X011440Y011275D01*
X011440Y011117D02*
X012347Y011117D01*
X012348Y011117D02*
X012243Y011012D01*
X012243Y010348D01*
X012348Y010243D01*
X013012Y010243D01*
X013117Y010348D01*
X013117Y011012D01*
X013012Y011117D01*
X012348Y011117D01*
X012243Y010958D02*
X011440Y010958D01*
X011440Y010800D02*
X012243Y010800D01*
X012243Y010641D02*
X011440Y010641D01*
X011440Y010483D02*
X012243Y010483D01*
X012266Y010324D02*
X011440Y010324D01*
X011440Y010166D02*
X014420Y010166D01*
X014420Y010324D02*
X013094Y010324D01*
X013117Y010483D02*
X014420Y010483D01*
X014420Y010641D02*
X013117Y010641D01*
X013117Y010800D02*
X014420Y010800D01*
X014420Y010958D02*
X013117Y010958D01*
X013013Y011117D02*
X014420Y011117D01*
X014420Y011275D02*
X013045Y011275D01*
X013117Y011434D02*
X014420Y011434D01*
X014420Y011592D02*
X013117Y011592D01*
X013117Y011751D02*
X014420Y011751D01*
X014420Y012385D02*
X013117Y012385D01*
X013117Y012348D02*
X013117Y013012D01*
X013012Y013117D01*
X012348Y013117D01*
X012243Y013012D01*
X012243Y012940D01*
X011940Y012940D01*
X011940Y017732D01*
X011900Y017827D01*
X011827Y017900D01*
X011732Y017940D01*
X011042Y017940D01*
X010862Y018120D01*
X010498Y018120D01*
X010240Y017862D01*
X010240Y017498D01*
X010498Y017240D01*
X010862Y017240D01*
X011042Y017420D01*
X011420Y017420D01*
X011420Y016280D01*
X011400Y016327D01*
X011327Y016400D01*
X011232Y016440D01*
X011042Y016440D01*
X010862Y016620D01*
X010498Y016620D01*
X010240Y016362D01*
X010240Y015998D01*
X010498Y015740D01*
X010862Y015740D01*
X010920Y015798D01*
X010920Y015062D01*
X010862Y015120D01*
X010498Y015120D01*
X010240Y014862D01*
X010240Y014498D01*
X010420Y014318D01*
X010420Y008128D01*
X010460Y008033D01*
X010533Y007960D01*
X010628Y007920D01*
X010920Y007920D01*
X010920Y006128D01*
X010960Y006033D01*
X011033Y005960D01*
X011128Y005920D01*
X012243Y005920D01*
X012243Y005348D01*
X012348Y005243D01*
X013012Y005243D01*
X013117Y005348D01*
X013117Y006012D01*
X013012Y006117D01*
X012940Y006117D01*
X012940Y006232D01*
X012936Y006243D01*
X013012Y006243D01*
X013117Y006348D01*
X013117Y007012D01*
X013012Y007117D01*
X012721Y007117D01*
X012646Y007243D01*
X013012Y007243D01*
X013117Y007348D01*
X013117Y008012D01*
X013012Y008117D01*
X012348Y008117D01*
X012243Y008012D01*
X012243Y007914D01*
X011440Y009252D01*
X011440Y012580D01*
X011460Y012533D01*
X011533Y012460D01*
X011628Y012420D01*
X012243Y012420D01*
X012243Y012348D01*
X012348Y012243D01*
X013012Y012243D01*
X013117Y012348D01*
X013117Y012543D02*
X014420Y012543D01*
X014420Y012702D02*
X013117Y012702D01*
X013117Y012860D02*
X014420Y012860D01*
X014420Y013019D02*
X013111Y013019D01*
X013105Y013336D02*
X014420Y013336D01*
X014420Y013494D02*
X013862Y013494D01*
X013940Y013653D02*
X014420Y013653D01*
X014453Y013811D02*
X013940Y013811D01*
X013680Y013680D02*
X012680Y013680D01*
X012243Y013653D02*
X011940Y013653D01*
X011940Y013811D02*
X012243Y013811D01*
X012243Y013970D02*
X011940Y013970D01*
X011940Y014128D02*
X013420Y014128D01*
X013420Y013970D02*
X013117Y013970D01*
X013012Y014243D02*
X013117Y014348D01*
X013117Y015012D01*
X013012Y015117D01*
X012348Y015117D01*
X012243Y015012D01*
X012243Y014348D01*
X012348Y014243D01*
X013012Y014243D01*
X013056Y014287D02*
X013443Y014287D01*
X013680Y014180D02*
X013680Y013680D01*
X013680Y014180D02*
X016680Y014180D01*
X016680Y013180D01*
X019180Y013180D01*
X019180Y015680D01*
X021680Y015680D01*
X021680Y017180D01*
X022680Y017180D01*
X023117Y017140D02*
X023243Y017140D01*
X023243Y017298D02*
X023117Y017298D01*
X023117Y017457D02*
X023243Y017457D01*
X023243Y017512D02*
X023243Y016848D01*
X023348Y016743D01*
X023420Y016743D01*
X023420Y009940D01*
X019542Y009940D01*
X019362Y010120D01*
X018998Y010120D01*
X018818Y009940D01*
X016628Y009940D01*
X016533Y009900D01*
X016460Y009827D01*
X016420Y009732D01*
X016420Y009531D01*
X016322Y009433D01*
X016322Y008927D01*
X016427Y008822D01*
X016933Y008822D01*
X017038Y008927D01*
X017038Y009420D01*
X018818Y009420D01*
X018998Y009240D01*
X019362Y009240D01*
X019542Y009420D01*
X023732Y009420D01*
X023827Y009460D01*
X023900Y009533D01*
X023940Y009628D01*
X023940Y016743D01*
X024012Y016743D01*
X024117Y016848D01*
X024117Y017512D01*
X024012Y017617D01*
X023348Y017617D01*
X023243Y017512D01*
X023346Y017615D02*
X023014Y017615D01*
X022346Y017615D02*
X012940Y017615D01*
X012940Y017457D02*
X022243Y017457D01*
X021447Y017298D02*
X012940Y017298D01*
X012940Y017140D02*
X021420Y017140D01*
X021420Y016981D02*
X016117Y016981D01*
X016117Y017012D02*
X016012Y017117D01*
X015348Y017117D01*
X015243Y017012D01*
X015243Y016348D01*
X015348Y016243D01*
X016012Y016243D01*
X016117Y016348D01*
X016117Y017012D01*
X016117Y016823D02*
X021420Y016823D01*
X021420Y016664D02*
X016117Y016664D01*
X016117Y016506D02*
X017471Y016506D01*
X017471Y016512D02*
X017471Y015848D01*
X017463Y015831D01*
X017460Y015827D01*
X017442Y015784D01*
X017422Y015741D01*
X017422Y015736D01*
X017420Y015732D01*
X017420Y015685D01*
X017418Y015638D01*
X017420Y015633D01*
X017420Y015042D01*
X017240Y014862D01*
X017240Y014498D01*
X017498Y014240D01*
X017862Y014240D01*
X018120Y014498D01*
X018120Y014862D01*
X017940Y015042D01*
X017940Y015623D01*
X017994Y015743D01*
X018240Y015743D01*
X018346Y015848D01*
X018346Y016512D01*
X018240Y016617D01*
X017576Y016617D01*
X017471Y016512D01*
X017471Y016347D02*
X016117Y016347D01*
X016012Y016117D02*
X015348Y016117D01*
X015243Y016012D01*
X015243Y015348D01*
X015348Y015243D01*
X016012Y015243D01*
X016117Y015348D01*
X016117Y016012D01*
X016012Y016117D01*
X016099Y016030D02*
X017471Y016030D01*
X017471Y015872D02*
X016117Y015872D01*
X016117Y015713D02*
X017420Y015713D01*
X017471Y015848D02*
X017471Y015848D01*
X017680Y015680D02*
X017680Y014680D01*
X018120Y014604D02*
X018920Y014604D01*
X018920Y014762D02*
X018120Y014762D01*
X018062Y014921D02*
X018920Y014921D01*
X018920Y015079D02*
X017940Y015079D01*
X017940Y015238D02*
X018920Y015238D01*
X018920Y015396D02*
X017940Y015396D01*
X017940Y015555D02*
X018920Y015555D01*
X018920Y015713D02*
X017981Y015713D01*
X017680Y015680D02*
X017908Y016180D01*
X017471Y016189D02*
X011940Y016189D01*
X011940Y016347D02*
X012243Y016347D01*
X012243Y016348D02*
X012348Y016243D01*
X013012Y016243D01*
X013117Y016348D01*
X013117Y017012D01*
X013012Y017117D01*
X012940Y017117D01*
X012940Y018420D01*
X017232Y018420D01*
X017327Y018460D01*
X017347Y018479D01*
X017471Y018479D01*
X017471Y018407D01*
X017576Y018302D01*
X018240Y018302D01*
X018346Y018407D01*
X018346Y019071D01*
X018240Y019177D01*
X017576Y019177D01*
X017471Y019071D01*
X017471Y018999D01*
X017128Y018999D01*
X017033Y018959D01*
X017013Y018940D01*
X012628Y018940D01*
X012533Y018900D01*
X012460Y018827D01*
X012420Y018732D01*
X012420Y017117D01*
X012348Y017117D01*
X012243Y017012D01*
X012243Y016348D01*
X012243Y016506D02*
X011940Y016506D01*
X011940Y016664D02*
X012243Y016664D01*
X012243Y016823D02*
X011940Y016823D01*
X011940Y016981D02*
X012243Y016981D01*
X012420Y017140D02*
X011940Y017140D01*
X011940Y017298D02*
X012420Y017298D01*
X012420Y017457D02*
X011940Y017457D01*
X011940Y017615D02*
X012420Y017615D01*
X012420Y017774D02*
X011923Y017774D01*
X011751Y017932D02*
X012420Y017932D01*
X012420Y018091D02*
X010892Y018091D01*
X010468Y018091D02*
X007892Y018091D01*
X007862Y018120D02*
X007498Y018120D01*
X007318Y017940D01*
X005117Y017940D01*
X005117Y018012D01*
X005012Y018117D01*
X004348Y018117D01*
X004243Y018012D01*
X004243Y017348D01*
X004348Y017243D01*
X005012Y017243D01*
X005117Y017348D01*
X005117Y017420D01*
X007318Y017420D01*
X007498Y017240D01*
X007862Y017240D01*
X008120Y017498D01*
X008120Y017862D01*
X007862Y018120D01*
X008050Y017932D02*
X010310Y017932D01*
X010240Y017774D02*
X008120Y017774D01*
X008120Y017615D02*
X010240Y017615D01*
X010281Y017457D02*
X008079Y017457D01*
X007920Y017298D02*
X010440Y017298D01*
X010680Y017680D02*
X011680Y017680D01*
X011680Y012680D01*
X012680Y012680D01*
X012243Y012385D02*
X011440Y012385D01*
X011440Y012543D02*
X011455Y012543D01*
X011940Y013019D02*
X012249Y013019D01*
X011940Y013177D02*
X014420Y013177D01*
X014940Y013336D02*
X015255Y013336D01*
X016117Y012860D02*
X018740Y012860D01*
X018740Y012702D02*
X016117Y012702D01*
X016117Y012543D02*
X018740Y012543D01*
X018853Y012385D02*
X016117Y012385D01*
X016940Y013494D02*
X018920Y013494D01*
X018920Y013653D02*
X016940Y013653D01*
X016940Y013811D02*
X018920Y013811D01*
X018920Y013970D02*
X016940Y013970D01*
X016940Y014128D02*
X018920Y014128D01*
X018920Y014287D02*
X017909Y014287D01*
X018067Y014445D02*
X018920Y014445D01*
X019440Y014445D02*
X023420Y014445D01*
X023420Y014287D02*
X019440Y014287D01*
X019440Y014128D02*
X023420Y014128D01*
X023420Y013970D02*
X019440Y013970D01*
X019440Y013811D02*
X023420Y013811D01*
X023420Y013653D02*
X019440Y013653D01*
X019440Y013494D02*
X023420Y013494D01*
X023420Y013336D02*
X019440Y013336D01*
X019440Y013177D02*
X023420Y013177D01*
X023420Y013019D02*
X019464Y013019D01*
X019620Y012860D02*
X023420Y012860D01*
X023420Y012702D02*
X019620Y012702D01*
X019620Y012543D02*
X023420Y012543D01*
X023420Y012385D02*
X019507Y012385D01*
X019180Y012680D02*
X019180Y013180D01*
X017451Y014287D02*
X016917Y014287D01*
X017293Y014445D02*
X016117Y014445D01*
X016117Y014604D02*
X017240Y014604D01*
X017240Y014762D02*
X016117Y014762D01*
X016117Y014921D02*
X017298Y014921D01*
X017420Y015079D02*
X016050Y015079D01*
X016117Y015396D02*
X017420Y015396D01*
X017420Y015238D02*
X011940Y015238D01*
X011940Y015396D02*
X012243Y015396D01*
X012243Y015348D02*
X012348Y015243D01*
X013012Y015243D01*
X013117Y015348D01*
X013117Y016012D01*
X013012Y016117D01*
X012348Y016117D01*
X012243Y016012D01*
X012243Y015348D01*
X012243Y015555D02*
X011940Y015555D01*
X011940Y015713D02*
X012243Y015713D01*
X012243Y015872D02*
X011940Y015872D01*
X011940Y016030D02*
X012261Y016030D01*
X012680Y016680D02*
X012680Y018680D01*
X017180Y018680D01*
X017180Y018739D01*
X017908Y018739D01*
X017471Y019042D02*
X001875Y019042D01*
X001940Y018883D02*
X012515Y018883D01*
X012420Y018725D02*
X001960Y018725D01*
X001960Y018566D02*
X012420Y018566D01*
X012420Y018408D02*
X001911Y018408D01*
X001846Y018249D02*
X012420Y018249D01*
X012940Y018249D02*
X027514Y018249D01*
X027449Y018408D02*
X020117Y018408D01*
X020117Y018407D02*
X020117Y019071D01*
X020012Y019177D01*
X019348Y019177D01*
X019243Y019071D01*
X019243Y018407D01*
X019348Y018302D01*
X020012Y018302D01*
X020117Y018407D01*
X020117Y018566D02*
X027400Y018566D01*
X027400Y018725D02*
X020117Y018725D01*
X020117Y018883D02*
X027420Y018883D01*
X027485Y019042D02*
X020117Y019042D01*
X019243Y019042D02*
X018346Y019042D01*
X018346Y018883D02*
X019243Y018883D01*
X019243Y018725D02*
X018346Y018725D01*
X018346Y018566D02*
X019243Y018566D01*
X019243Y018408D02*
X018346Y018408D01*
X017471Y018408D02*
X012940Y018408D01*
X012940Y018091D02*
X027666Y018091D01*
X027948Y017932D02*
X012940Y017932D01*
X012940Y017774D02*
X028920Y017774D01*
X028920Y017932D02*
X028412Y017932D01*
X028694Y018091D02*
X028920Y018091D01*
X028920Y018249D02*
X028846Y018249D01*
X028911Y018408D02*
X028920Y018408D01*
X028920Y017615D02*
X025970Y017615D01*
X025961Y017617D02*
X025680Y017617D01*
X025680Y017180D01*
X025680Y017180D01*
X026117Y017180D01*
X026117Y017461D01*
X026105Y017507D01*
X026082Y017548D01*
X026048Y017582D01*
X026007Y017605D01*
X025961Y017617D01*
X026117Y017457D02*
X028920Y017457D01*
X028920Y017298D02*
X026117Y017298D01*
X026117Y017180D02*
X025680Y017180D01*
X025680Y017180D01*
X025680Y017617D01*
X025399Y017617D01*
X025353Y017605D01*
X025312Y017582D01*
X025278Y017548D01*
X025255Y017507D01*
X025243Y017461D01*
X025243Y017180D01*
X025243Y016899D01*
X025255Y016853D01*
X025278Y016812D01*
X025312Y016778D01*
X025353Y016755D01*
X025399Y016743D01*
X025680Y016743D01*
X025961Y016743D01*
X026007Y016755D01*
X026048Y016778D01*
X026082Y016812D01*
X026105Y016853D01*
X026117Y016899D01*
X026117Y017180D01*
X026117Y017140D02*
X028920Y017140D01*
X028920Y016981D02*
X026117Y016981D01*
X026088Y016823D02*
X028920Y016823D01*
X028920Y016664D02*
X023940Y016664D01*
X023940Y016506D02*
X028920Y016506D01*
X028920Y016347D02*
X023940Y016347D01*
X023940Y016189D02*
X028920Y016189D01*
X028920Y016030D02*
X023940Y016030D01*
X023940Y015872D02*
X028920Y015872D01*
X028920Y015713D02*
X023940Y015713D01*
X023940Y015555D02*
X028920Y015555D01*
X028920Y015396D02*
X023940Y015396D01*
X023940Y015238D02*
X028920Y015238D01*
X028920Y015079D02*
X023940Y015079D01*
X023940Y014921D02*
X028920Y014921D01*
X028920Y014762D02*
X023940Y014762D01*
X023940Y014604D02*
X027099Y014604D01*
X027129Y014633D02*
X027000Y014504D01*
X027000Y013708D01*
X027062Y013646D01*
X027000Y013583D01*
X027000Y013248D01*
X027129Y013119D01*
X027149Y013119D01*
X027129Y013098D01*
X027000Y012970D01*
X027000Y012480D01*
X027280Y012200D01*
X027282Y012198D01*
X027465Y012198D01*
X027896Y012198D01*
X028078Y012198D01*
X028207Y012327D01*
X028232Y012351D01*
X028361Y012480D01*
X028361Y012970D01*
X028207Y013123D01*
X028086Y013244D01*
X028078Y013252D01*
X027593Y013252D01*
X027593Y013583D01*
X027465Y013712D01*
X027444Y013712D01*
X027911Y014179D01*
X027921Y014168D01*
X027921Y014044D01*
X027767Y013890D01*
X027767Y013708D01*
X027896Y013579D01*
X028078Y013579D01*
X028232Y013733D01*
X028359Y013859D01*
X028361Y013862D01*
X028361Y014351D01*
X028232Y014480D01*
X028078Y014633D01*
X027743Y014633D01*
X027614Y014504D01*
X027440Y014330D01*
X027440Y014504D01*
X027311Y014633D01*
X027129Y014633D01*
X027341Y014604D02*
X027713Y014604D01*
X027555Y014445D02*
X027440Y014445D01*
X027860Y014128D02*
X027921Y014128D01*
X027847Y013970D02*
X027701Y013970D01*
X027767Y013811D02*
X027543Y013811D01*
X027524Y013653D02*
X027823Y013653D01*
X027593Y013494D02*
X028920Y013494D01*
X028920Y013336D02*
X027593Y013336D01*
X027071Y013177D02*
X023940Y013177D01*
X023940Y013019D02*
X027049Y013019D01*
X027129Y013098D02*
X027129Y013098D01*
X027000Y012860D02*
X023940Y012860D01*
X023940Y012702D02*
X027000Y012702D01*
X027000Y012543D02*
X023940Y012543D01*
X023940Y012385D02*
X027096Y012385D01*
X027254Y012226D02*
X023940Y012226D01*
X023940Y012068D02*
X028920Y012068D01*
X028920Y012226D02*
X028106Y012226D01*
X028207Y012327D02*
X028207Y012327D01*
X028232Y012351D02*
X028232Y012351D01*
X028265Y012385D02*
X028920Y012385D01*
X028920Y012543D02*
X028361Y012543D01*
X028361Y012702D02*
X028920Y012702D01*
X028920Y012860D02*
X028361Y012860D01*
X028312Y013019D02*
X028920Y013019D01*
X028920Y013177D02*
X028153Y013177D01*
X028152Y013653D02*
X028920Y013653D01*
X028920Y013811D02*
X028310Y013811D01*
X028232Y013733D02*
X028232Y013733D01*
X028361Y013970D02*
X028920Y013970D01*
X028920Y014128D02*
X028361Y014128D01*
X028361Y014287D02*
X028920Y014287D01*
X028920Y014445D02*
X028266Y014445D01*
X028108Y014604D02*
X028920Y014604D01*
X027056Y013653D02*
X023940Y013653D01*
X023940Y013811D02*
X027000Y013811D01*
X027000Y013970D02*
X023940Y013970D01*
X023940Y014128D02*
X027000Y014128D01*
X027000Y014287D02*
X023940Y014287D01*
X023940Y014445D02*
X027000Y014445D01*
X027000Y013494D02*
X023940Y013494D01*
X023940Y013336D02*
X027000Y013336D01*
X028920Y011909D02*
X023940Y011909D01*
X023940Y011751D02*
X028920Y011751D01*
X028920Y011592D02*
X023940Y011592D01*
X023940Y011434D02*
X028920Y011434D01*
X028920Y011275D02*
X028054Y011275D01*
X028054Y011281D02*
X027925Y011410D01*
X027743Y011410D01*
X027614Y011281D01*
X027614Y011128D01*
X027436Y010950D01*
X027129Y010950D01*
X027000Y010821D01*
X027000Y010639D01*
X027129Y010510D01*
X027307Y010510D01*
X027307Y010490D01*
X027129Y010490D01*
X027000Y010361D01*
X027000Y009871D01*
X027149Y009722D01*
X027129Y009722D01*
X027000Y009593D01*
X027000Y009411D01*
X027129Y009282D01*
X027589Y009282D01*
X027614Y009258D01*
X027614Y009133D01*
X027589Y009108D01*
X027129Y009108D01*
X027000Y008979D01*
X027000Y008797D01*
X027062Y008735D01*
X027000Y008673D01*
X027000Y008490D01*
X027153Y008337D01*
X027280Y008210D01*
X027282Y008208D01*
X027614Y008208D01*
X027614Y008188D01*
X027129Y008188D01*
X027000Y008059D01*
X027000Y007416D01*
X027280Y007136D01*
X027282Y007134D01*
X027307Y007134D01*
X027307Y007113D01*
X027129Y007113D01*
X027000Y006984D01*
X027000Y006495D01*
X027149Y006346D01*
X027129Y006346D01*
X027000Y006217D01*
X027000Y006035D01*
X027129Y005906D01*
X027216Y005819D01*
X027000Y005603D01*
X027000Y005421D01*
X027062Y005359D01*
X027000Y005296D01*
X027000Y004807D01*
X027129Y004678D01*
X027311Y004678D01*
X027440Y004807D01*
X027440Y004832D01*
X027614Y004832D01*
X027614Y004811D01*
X027589Y004811D01*
X027436Y004658D01*
X027307Y004529D01*
X027307Y004197D01*
X027129Y004197D01*
X027000Y004069D01*
X027000Y003886D01*
X027129Y003757D01*
X028232Y003757D01*
X028361Y003886D01*
X028361Y004529D01*
X028207Y004682D01*
X028078Y004811D01*
X028054Y004811D01*
X028054Y004832D01*
X028385Y004832D01*
X028514Y004961D01*
X028514Y005143D01*
X028385Y005272D01*
X028050Y005272D01*
X027987Y005209D01*
X027925Y005272D01*
X027440Y005272D01*
X027440Y005292D01*
X028232Y005292D01*
X028361Y005421D01*
X028361Y005603D01*
X028232Y005732D01*
X027747Y005732D01*
X027747Y005906D01*
X028232Y005906D01*
X028361Y006035D01*
X028361Y006217D01*
X028232Y006346D01*
X027905Y006346D01*
X027925Y006366D01*
X028054Y006495D01*
X028054Y006984D01*
X027900Y007138D01*
X027772Y007267D01*
X027598Y007267D01*
X027618Y007287D01*
X027680Y007350D01*
X027743Y007287D01*
X027925Y007287D01*
X028054Y007416D01*
X028054Y007905D01*
X027905Y008054D01*
X027925Y008054D01*
X028054Y008183D01*
X028054Y008208D01*
X028078Y008208D01*
X028207Y008337D01*
X028207Y008519D01*
X028078Y008648D01*
X028054Y008648D01*
X028054Y008668D01*
X028232Y008668D01*
X028361Y008797D01*
X028361Y008979D01*
X028232Y009108D01*
X028054Y009108D01*
X028054Y009440D01*
X027900Y009593D01*
X027838Y009656D01*
X027900Y009718D01*
X027925Y009743D01*
X028054Y009871D01*
X028054Y010361D01*
X027905Y010510D01*
X027925Y010510D01*
X028054Y010639D01*
X028054Y010821D01*
X027992Y010883D01*
X028054Y010946D01*
X028054Y011281D01*
X028054Y011117D02*
X028920Y011117D01*
X028920Y010958D02*
X028054Y010958D01*
X028054Y010800D02*
X028920Y010800D01*
X028920Y010641D02*
X028054Y010641D01*
X027932Y010483D02*
X028920Y010483D01*
X028920Y010324D02*
X028054Y010324D01*
X028054Y010166D02*
X028920Y010166D01*
X028920Y010007D02*
X028054Y010007D01*
X028031Y009849D02*
X028920Y009849D01*
X028920Y009690D02*
X027872Y009690D01*
X027900Y009718D02*
X027900Y009718D01*
X027925Y009743D02*
X027925Y009743D01*
X027962Y009532D02*
X028920Y009532D01*
X028920Y009373D02*
X028054Y009373D01*
X028054Y009215D02*
X028920Y009215D01*
X028920Y009056D02*
X028284Y009056D01*
X028361Y008898D02*
X028920Y008898D01*
X028920Y008739D02*
X028303Y008739D01*
X028146Y008581D02*
X028920Y008581D01*
X028920Y008422D02*
X028207Y008422D01*
X028134Y008264D02*
X028920Y008264D01*
X028920Y008105D02*
X027976Y008105D01*
X028013Y007947D02*
X028920Y007947D01*
X028920Y007788D02*
X028054Y007788D01*
X028054Y007630D02*
X028920Y007630D01*
X028920Y007471D02*
X028054Y007471D01*
X027950Y007313D02*
X028920Y007313D01*
X028920Y007154D02*
X027884Y007154D01*
X028043Y006996D02*
X028920Y006996D01*
X028920Y006837D02*
X028054Y006837D01*
X028054Y006679D02*
X028920Y006679D01*
X028920Y006520D02*
X028054Y006520D01*
X027925Y006366D02*
X027925Y006366D01*
X027920Y006362D02*
X028920Y006362D01*
X028920Y006203D02*
X028361Y006203D01*
X028361Y006045D02*
X028920Y006045D01*
X028920Y005886D02*
X027747Y005886D01*
X028237Y005728D02*
X028920Y005728D01*
X028920Y005569D02*
X028361Y005569D01*
X028350Y005411D02*
X028920Y005411D01*
X028920Y005252D02*
X028405Y005252D01*
X028514Y005094D02*
X028920Y005094D01*
X028920Y004935D02*
X028489Y004935D01*
X028272Y004618D02*
X028920Y004618D01*
X028920Y004460D02*
X028361Y004460D01*
X028361Y004301D02*
X028920Y004301D01*
X028920Y004143D02*
X028361Y004143D01*
X028361Y003984D02*
X028920Y003984D01*
X028920Y003826D02*
X028300Y003826D01*
X028920Y003667D02*
X024117Y003667D01*
X024117Y003509D02*
X028920Y003509D01*
X028920Y003350D02*
X024117Y003350D01*
X024117Y003348D02*
X024117Y004012D01*
X024012Y004117D01*
X023440Y004117D01*
X023440Y004243D01*
X024012Y004243D01*
X024117Y004348D01*
X024117Y005012D01*
X024012Y005117D01*
X023440Y005117D01*
X023440Y007732D01*
X023400Y007827D01*
X023327Y007900D01*
X023232Y007940D01*
X016117Y007940D01*
X016117Y008012D01*
X016012Y008117D01*
X015348Y008117D01*
X015243Y008012D01*
X015243Y007348D01*
X015348Y007243D01*
X016012Y007243D01*
X016117Y007348D01*
X016117Y007420D01*
X022920Y007420D01*
X022920Y005117D01*
X022348Y005117D01*
X022243Y005012D01*
X022243Y004348D01*
X022348Y004243D01*
X022920Y004243D01*
X022920Y004117D01*
X022348Y004117D01*
X022243Y004012D01*
X022243Y003348D01*
X022348Y003243D01*
X023012Y003243D01*
X023117Y003348D01*
X023117Y003420D01*
X023232Y003420D01*
X023243Y003424D01*
X023243Y003348D01*
X023348Y003243D01*
X024012Y003243D01*
X024117Y003348D01*
X024117Y003826D02*
X027061Y003826D01*
X027000Y003984D02*
X024117Y003984D01*
X024071Y004301D02*
X027307Y004301D01*
X027307Y004460D02*
X024117Y004460D01*
X024117Y004618D02*
X027396Y004618D01*
X027409Y004777D02*
X027554Y004777D01*
X027031Y004777D02*
X024117Y004777D01*
X024117Y004935D02*
X027000Y004935D01*
X027000Y005094D02*
X024036Y005094D01*
X023440Y005252D02*
X027000Y005252D01*
X027010Y005411D02*
X023440Y005411D01*
X023440Y005569D02*
X027000Y005569D01*
X027124Y005728D02*
X023440Y005728D01*
X023440Y005886D02*
X027149Y005886D01*
X027129Y005906D02*
X027129Y005906D01*
X027000Y006045D02*
X023440Y006045D01*
X023440Y006203D02*
X027000Y006203D01*
X027134Y006362D02*
X023440Y006362D01*
X023440Y006520D02*
X027000Y006520D01*
X027000Y006679D02*
X023440Y006679D01*
X023440Y006837D02*
X027000Y006837D01*
X027011Y006996D02*
X023440Y006996D01*
X023440Y007154D02*
X027262Y007154D01*
X027104Y007313D02*
X023440Y007313D01*
X023440Y007471D02*
X027000Y007471D01*
X027000Y007630D02*
X023440Y007630D01*
X023417Y007788D02*
X027000Y007788D01*
X027000Y007947D02*
X016117Y007947D01*
X016025Y008105D02*
X027046Y008105D01*
X027227Y008264D02*
X016033Y008264D01*
X016012Y008243D02*
X016117Y008348D01*
X016117Y009012D01*
X016012Y009117D01*
X015348Y009117D01*
X015243Y009012D01*
X015243Y008348D01*
X015348Y008243D01*
X016012Y008243D01*
X016117Y008422D02*
X027068Y008422D01*
X027153Y008337D02*
X027153Y008337D01*
X027000Y008581D02*
X016117Y008581D01*
X016117Y008739D02*
X027058Y008739D01*
X027000Y008898D02*
X017008Y008898D01*
X017038Y009056D02*
X027077Y009056D01*
X027038Y009373D02*
X019495Y009373D01*
X019180Y009680D02*
X023680Y009680D01*
X023680Y017180D01*
X023243Y016981D02*
X023117Y016981D01*
X023092Y016823D02*
X023268Y016823D01*
X023420Y016664D02*
X021940Y016664D01*
X021940Y016506D02*
X023420Y016506D01*
X023420Y016347D02*
X021940Y016347D01*
X021940Y016189D02*
X023420Y016189D01*
X023420Y016030D02*
X021940Y016030D01*
X021940Y015872D02*
X023420Y015872D01*
X023420Y015713D02*
X021940Y015713D01*
X021909Y015555D02*
X023420Y015555D01*
X023420Y015396D02*
X019440Y015396D01*
X019440Y015238D02*
X023420Y015238D01*
X023420Y015079D02*
X019440Y015079D01*
X019440Y014921D02*
X023420Y014921D01*
X023420Y014762D02*
X019440Y014762D01*
X019440Y014604D02*
X023420Y014604D01*
X021420Y016030D02*
X020117Y016030D01*
X020117Y016189D02*
X021420Y016189D01*
X021420Y016347D02*
X020117Y016347D01*
X020106Y016506D02*
X021420Y016506D01*
X021940Y016823D02*
X022268Y016823D01*
X024014Y017615D02*
X024346Y017615D01*
X024348Y017617D02*
X024243Y017512D01*
X024243Y016848D01*
X024348Y016743D01*
X025012Y016743D01*
X025117Y016848D01*
X025117Y017512D01*
X025012Y017617D01*
X024348Y017617D01*
X024243Y017457D02*
X024117Y017457D01*
X024117Y017298D02*
X024243Y017298D01*
X024243Y017140D02*
X024117Y017140D01*
X024117Y016981D02*
X024243Y016981D01*
X024268Y016823D02*
X024092Y016823D01*
X025092Y016823D02*
X025272Y016823D01*
X025243Y016981D02*
X025117Y016981D01*
X025117Y017140D02*
X025243Y017140D01*
X025243Y017180D02*
X025680Y017180D01*
X025680Y016743D01*
X025680Y017180D01*
X025680Y017180D01*
X025680Y017180D01*
X025243Y017180D01*
X025243Y017298D02*
X025117Y017298D01*
X025117Y017457D02*
X025243Y017457D01*
X025390Y017615D02*
X025014Y017615D01*
X025680Y017615D02*
X025680Y017615D01*
X025680Y017457D02*
X025680Y017457D01*
X025680Y017298D02*
X025680Y017298D01*
X025680Y017140D02*
X025680Y017140D01*
X025680Y016981D02*
X025680Y016981D01*
X025680Y016823D02*
X025680Y016823D01*
X027597Y019200D02*
X001763Y019200D01*
X001580Y019359D02*
X027780Y019359D01*
X019680Y016617D02*
X019680Y016180D01*
X019243Y016180D01*
X019243Y016461D01*
X019255Y016507D01*
X019278Y016548D01*
X019312Y016582D01*
X019353Y016605D01*
X019399Y016617D01*
X019680Y016617D01*
X019680Y016506D02*
X019680Y016506D01*
X019680Y016347D02*
X019680Y016347D01*
X019680Y016189D02*
X019680Y016189D01*
X019243Y016189D02*
X018346Y016189D01*
X018346Y016347D02*
X019243Y016347D01*
X019254Y016506D02*
X018346Y016506D01*
X018346Y016030D02*
X019243Y016030D01*
X019004Y015872D02*
X018346Y015872D01*
X017420Y015555D02*
X016117Y015555D01*
X015243Y015555D02*
X013117Y015555D01*
X013117Y015713D02*
X015243Y015713D01*
X015243Y015872D02*
X013117Y015872D01*
X013099Y016030D02*
X015261Y016030D01*
X015243Y016347D02*
X013117Y016347D01*
X013117Y016506D02*
X015243Y016506D01*
X015243Y016664D02*
X013117Y016664D01*
X013117Y016823D02*
X015243Y016823D01*
X015243Y016981D02*
X013117Y016981D01*
X011420Y016981D02*
X005112Y016981D01*
X005117Y016961D02*
X005105Y017007D01*
X005082Y017048D01*
X005048Y017082D01*
X005007Y017105D01*
X004961Y017117D01*
X004680Y017117D01*
X004399Y017117D01*
X004353Y017105D01*
X004312Y017082D01*
X004278Y017048D01*
X004255Y017007D01*
X004243Y016961D01*
X004243Y016680D01*
X004243Y016399D01*
X004255Y016353D01*
X004278Y016312D01*
X004312Y016278D01*
X004353Y016255D01*
X004399Y016243D01*
X004680Y016243D01*
X004961Y016243D01*
X005007Y016255D01*
X005048Y016278D01*
X005082Y016312D01*
X005105Y016353D01*
X005117Y016399D01*
X005117Y016680D01*
X004680Y016680D01*
X005117Y016680D01*
X005117Y016961D01*
X005117Y016823D02*
X011420Y016823D01*
X011420Y016664D02*
X005117Y016664D01*
X005117Y016506D02*
X007383Y016506D01*
X007498Y016620D02*
X007250Y016372D01*
X005114Y016016D01*
X005012Y016117D01*
X004348Y016117D01*
X004243Y016012D01*
X004243Y015348D01*
X004348Y015243D01*
X005012Y015243D01*
X005117Y015348D01*
X005117Y015489D01*
X007373Y015865D01*
X007498Y015740D01*
X007862Y015740D01*
X008120Y015998D01*
X008120Y016362D01*
X007862Y016620D01*
X007498Y016620D01*
X007101Y016347D02*
X005102Y016347D01*
X005099Y016030D02*
X005199Y016030D01*
X004680Y016243D02*
X004680Y016680D01*
X004680Y016680D01*
X004680Y016680D01*
X004680Y017117D01*
X004680Y016680D01*
X004680Y016680D01*
X004680Y016680D01*
X004243Y016680D01*
X004680Y016680D01*
X004680Y016243D01*
X004680Y016347D02*
X004680Y016347D01*
X004680Y016506D02*
X004680Y016506D01*
X004680Y016664D02*
X004680Y016664D01*
X004680Y016823D02*
X004680Y016823D01*
X004680Y016981D02*
X004680Y016981D01*
X004248Y016981D02*
X000440Y016981D01*
X000440Y016823D02*
X004243Y016823D01*
X004243Y016664D02*
X000440Y016664D01*
X000440Y016506D02*
X004243Y016506D01*
X004258Y016347D02*
X000440Y016347D01*
X000440Y016189D02*
X006150Y016189D01*
X006460Y015713D02*
X010920Y015713D01*
X010920Y015555D02*
X005509Y015555D01*
X005117Y015396D02*
X010920Y015396D01*
X010920Y015238D02*
X000440Y015238D01*
X000440Y015396D02*
X004243Y015396D01*
X004243Y015555D02*
X000440Y015555D01*
X000440Y015713D02*
X004243Y015713D01*
X004243Y015872D02*
X000440Y015872D01*
X000440Y016030D02*
X004261Y016030D01*
X004680Y015680D02*
X007680Y016180D01*
X008120Y016189D02*
X010240Y016189D01*
X010240Y016347D02*
X008120Y016347D01*
X007977Y016506D02*
X010383Y016506D01*
X010680Y016180D02*
X011180Y016180D01*
X011180Y009180D01*
X012680Y006680D01*
X013117Y006679D02*
X013420Y006679D01*
X013420Y006837D02*
X013117Y006837D01*
X013117Y006996D02*
X013420Y006996D01*
X013420Y007154D02*
X012699Y007154D01*
X013082Y007313D02*
X013420Y007313D01*
X013420Y007471D02*
X013117Y007471D01*
X013117Y007630D02*
X013420Y007630D01*
X013420Y007788D02*
X013117Y007788D01*
X013117Y007947D02*
X013420Y007947D01*
X013420Y008105D02*
X013025Y008105D01*
X013012Y008243D02*
X013117Y008348D01*
X013117Y009012D01*
X013012Y009117D01*
X012348Y009117D01*
X012243Y009012D01*
X012243Y008348D01*
X012348Y008243D01*
X013012Y008243D01*
X013033Y008264D02*
X013420Y008264D01*
X013420Y008422D02*
X013117Y008422D01*
X013117Y008581D02*
X013420Y008581D01*
X013420Y008739D02*
X013117Y008739D01*
X013117Y008898D02*
X013352Y008898D01*
X013322Y008927D02*
X013420Y008829D01*
X013420Y004940D01*
X013117Y004940D01*
X013117Y005012D01*
X013012Y005117D01*
X012348Y005117D01*
X012243Y005012D01*
X012243Y004348D01*
X012348Y004243D01*
X013012Y004243D01*
X013117Y004348D01*
X013117Y004420D01*
X013732Y004420D01*
X013827Y004460D01*
X013900Y004533D01*
X013940Y004628D01*
X013940Y008829D01*
X014038Y008927D01*
X014038Y009433D01*
X013933Y009538D01*
X013427Y009538D01*
X013322Y009433D01*
X013322Y008927D01*
X013322Y009056D02*
X013074Y009056D01*
X013007Y009255D02*
X013048Y009278D01*
X013082Y009312D01*
X013105Y009353D01*
X013117Y009399D01*
X013117Y009680D01*
X012680Y009680D01*
X013117Y009680D01*
X013117Y009961D01*
X013105Y010007D01*
X014420Y010007D01*
X014420Y009849D02*
X013117Y009849D01*
X013105Y010007D02*
X013082Y010048D01*
X013048Y010082D01*
X013007Y010105D01*
X012961Y010117D01*
X012680Y010117D01*
X012399Y010117D01*
X012353Y010105D01*
X012312Y010082D01*
X012278Y010048D01*
X012255Y010007D01*
X011440Y010007D01*
X011440Y009849D02*
X012243Y009849D01*
X012243Y009961D02*
X012243Y009680D01*
X012243Y009399D01*
X012255Y009353D01*
X012278Y009312D01*
X012312Y009278D01*
X012353Y009255D01*
X012399Y009243D01*
X012680Y009243D01*
X012961Y009243D01*
X013007Y009255D01*
X013111Y009373D02*
X013322Y009373D01*
X013322Y009215D02*
X011463Y009215D01*
X011440Y009373D02*
X012249Y009373D01*
X012243Y009532D02*
X011440Y009532D01*
X011440Y009690D02*
X012243Y009690D01*
X012243Y009680D02*
X012680Y009680D01*
X012680Y009680D01*
X012680Y009680D01*
X012680Y010117D01*
X012680Y009680D01*
X012680Y009243D01*
X012680Y009680D01*
X012680Y009680D01*
X012680Y009680D01*
X012243Y009680D01*
X012243Y009961D02*
X012255Y010007D01*
X012680Y010007D02*
X012680Y010007D01*
X012680Y009849D02*
X012680Y009849D01*
X012680Y009690D02*
X012680Y009690D01*
X012680Y009532D02*
X012680Y009532D01*
X012680Y009373D02*
X012680Y009373D01*
X013117Y009532D02*
X013421Y009532D01*
X013117Y009690D02*
X014420Y009690D01*
X014420Y009532D02*
X013939Y009532D01*
X014038Y009373D02*
X014420Y009373D01*
X014420Y009215D02*
X014038Y009215D01*
X014038Y009056D02*
X014420Y009056D01*
X014420Y008898D02*
X014008Y008898D01*
X013940Y008739D02*
X014420Y008739D01*
X014420Y008581D02*
X013940Y008581D01*
X013940Y008422D02*
X014420Y008422D01*
X014420Y008264D02*
X013940Y008264D01*
X013940Y008105D02*
X014420Y008105D01*
X014420Y007947D02*
X013940Y007947D01*
X013940Y007788D02*
X014420Y007788D01*
X014420Y007630D02*
X013940Y007630D01*
X013940Y007471D02*
X014420Y007471D01*
X014420Y007313D02*
X013940Y007313D01*
X013940Y007154D02*
X014420Y007154D01*
X014420Y006996D02*
X013940Y006996D01*
X013940Y006837D02*
X014420Y006837D01*
X014420Y006679D02*
X013940Y006679D01*
X013940Y006520D02*
X014420Y006520D01*
X014420Y006362D02*
X013940Y006362D01*
X013940Y006203D02*
X014420Y006203D01*
X014420Y006045D02*
X013940Y006045D01*
X013940Y005886D02*
X014420Y005886D01*
X014420Y005728D02*
X013940Y005728D01*
X013940Y005569D02*
X014420Y005569D01*
X014420Y005411D02*
X013940Y005411D01*
X013940Y005252D02*
X014420Y005252D01*
X014420Y005094D02*
X013940Y005094D01*
X013940Y004935D02*
X014420Y004935D01*
X014420Y004777D02*
X013940Y004777D01*
X013936Y004618D02*
X014420Y004618D01*
X014420Y004460D02*
X013827Y004460D01*
X013680Y004680D02*
X013680Y009180D01*
X014940Y009215D02*
X016322Y009215D01*
X016322Y009373D02*
X016117Y009373D01*
X016117Y009348D02*
X016012Y009243D01*
X015348Y009243D01*
X015243Y009348D01*
X015243Y010012D01*
X015348Y010117D01*
X016012Y010117D01*
X016117Y010012D01*
X016117Y009348D01*
X016117Y009532D02*
X016420Y009532D01*
X016420Y009690D02*
X016117Y009690D01*
X016117Y009849D02*
X016481Y009849D01*
X016680Y009680D02*
X016680Y009180D01*
X016322Y009056D02*
X016074Y009056D01*
X016117Y008898D02*
X016352Y008898D01*
X017038Y009215D02*
X027614Y009215D01*
X027097Y009690D02*
X023940Y009690D01*
X023940Y009849D02*
X027023Y009849D01*
X027000Y010007D02*
X023940Y010007D01*
X023940Y010166D02*
X027000Y010166D01*
X027000Y010324D02*
X023940Y010324D01*
X023940Y010483D02*
X027122Y010483D01*
X027000Y010641D02*
X023940Y010641D01*
X023940Y010800D02*
X027000Y010800D01*
X027444Y010958D02*
X023940Y010958D01*
X023940Y011117D02*
X027602Y011117D01*
X027614Y011275D02*
X023940Y011275D01*
X023420Y011434D02*
X018056Y011434D01*
X018120Y011592D02*
X023420Y011592D01*
X023420Y011751D02*
X018120Y011751D01*
X018073Y011909D02*
X023420Y011909D01*
X023420Y010007D02*
X019475Y010007D01*
X019180Y009680D02*
X016680Y009680D01*
X017038Y009373D02*
X018865Y009373D01*
X018885Y010007D02*
X016117Y010007D01*
X015680Y010324D02*
X015680Y010324D01*
X015680Y010483D02*
X015680Y010483D01*
X015680Y010641D02*
X015680Y010641D01*
X015680Y010800D02*
X015680Y010800D01*
X015680Y010958D02*
X015680Y010958D01*
X015680Y011117D02*
X015680Y011117D01*
X015243Y010007D02*
X014940Y010007D01*
X014940Y009849D02*
X015243Y009849D01*
X015243Y009690D02*
X014940Y009690D01*
X014940Y009532D02*
X015243Y009532D01*
X015243Y009373D02*
X014940Y009373D01*
X014940Y009056D02*
X015286Y009056D01*
X015243Y008898D02*
X014940Y008898D01*
X014940Y008739D02*
X015243Y008739D01*
X015243Y008581D02*
X014940Y008581D01*
X014940Y008422D02*
X015243Y008422D01*
X015327Y008264D02*
X014940Y008264D01*
X014940Y008105D02*
X015335Y008105D01*
X015243Y007947D02*
X014940Y007947D01*
X014940Y007788D02*
X015243Y007788D01*
X015243Y007630D02*
X014940Y007630D01*
X014940Y007471D02*
X015243Y007471D01*
X015278Y007313D02*
X014940Y007313D01*
X014940Y007154D02*
X022920Y007154D01*
X022920Y006996D02*
X016117Y006996D01*
X016117Y007012D02*
X016012Y007117D01*
X015348Y007117D01*
X015243Y007012D01*
X015243Y006348D01*
X015348Y006243D01*
X016012Y006243D01*
X016117Y006348D01*
X016117Y007012D01*
X016117Y006837D02*
X022920Y006837D01*
X022920Y006679D02*
X016117Y006679D01*
X016117Y006520D02*
X022920Y006520D01*
X022920Y006362D02*
X016117Y006362D01*
X016012Y006117D02*
X015348Y006117D01*
X015243Y006012D01*
X015243Y005348D01*
X015348Y005243D01*
X016012Y005243D01*
X016117Y005348D01*
X016117Y006012D01*
X016012Y006117D01*
X016085Y006045D02*
X022920Y006045D01*
X022920Y006203D02*
X014940Y006203D01*
X014940Y006045D02*
X015275Y006045D01*
X015243Y005886D02*
X014940Y005886D01*
X014940Y005728D02*
X015243Y005728D01*
X015243Y005569D02*
X014940Y005569D01*
X014940Y005411D02*
X015243Y005411D01*
X015338Y005252D02*
X014940Y005252D01*
X014940Y005094D02*
X015324Y005094D01*
X015348Y005117D02*
X015243Y005012D01*
X015243Y004348D01*
X015348Y004243D01*
X016012Y004243D01*
X016117Y004348D01*
X016117Y004420D01*
X019732Y004420D01*
X019827Y004460D01*
X019900Y004533D01*
X019940Y004628D01*
X019940Y005420D01*
X021420Y005420D01*
X021420Y005117D01*
X021348Y005117D01*
X021243Y005012D01*
X021243Y004348D01*
X021348Y004243D01*
X022012Y004243D01*
X022117Y004348D01*
X022117Y005012D01*
X022012Y005117D01*
X021940Y005117D01*
X021940Y005732D01*
X021900Y005827D01*
X021827Y005900D01*
X021732Y005940D01*
X019628Y005940D01*
X019533Y005900D01*
X019460Y005827D01*
X019420Y005732D01*
X019420Y004940D01*
X016117Y004940D01*
X016117Y005012D01*
X016012Y005117D01*
X015348Y005117D01*
X015243Y004935D02*
X014940Y004935D01*
X014940Y004777D02*
X015243Y004777D01*
X015243Y004618D02*
X014940Y004618D01*
X014940Y004460D02*
X015243Y004460D01*
X015289Y004301D02*
X014940Y004301D01*
X014940Y004143D02*
X022920Y004143D01*
X023440Y004143D02*
X027074Y004143D01*
X028113Y004777D02*
X028920Y004777D01*
X028030Y005252D02*
X027945Y005252D01*
X027618Y007287D02*
X027618Y007287D01*
X027643Y007313D02*
X027717Y007313D01*
X027000Y009532D02*
X023899Y009532D01*
X023180Y007680D02*
X023180Y003680D01*
X022680Y003680D01*
X022243Y003667D02*
X022117Y003667D01*
X022117Y003509D02*
X022243Y003509D01*
X022243Y003350D02*
X022117Y003350D01*
X022117Y003348D02*
X022117Y004012D01*
X022012Y004117D01*
X021348Y004117D01*
X021243Y004012D01*
X021243Y003348D01*
X021348Y003243D01*
X021420Y003243D01*
X021420Y002940D01*
X018940Y002940D01*
X018940Y003732D01*
X018900Y003827D01*
X018827Y003900D01*
X018732Y003940D01*
X016117Y003940D01*
X016117Y004012D01*
X016012Y004117D01*
X015348Y004117D01*
X015243Y004012D01*
X015243Y003348D01*
X015348Y003243D01*
X016012Y003243D01*
X016117Y003348D01*
X016117Y003420D01*
X018420Y003420D01*
X018420Y002628D01*
X018460Y002533D01*
X018533Y002460D01*
X018628Y002420D01*
X021732Y002420D01*
X021827Y002460D01*
X021900Y002533D01*
X021940Y002628D01*
X021940Y003243D01*
X022012Y003243D01*
X022117Y003348D01*
X021940Y003192D02*
X028920Y003192D01*
X028920Y003033D02*
X021940Y003033D01*
X021940Y002875D02*
X028920Y002875D01*
X028920Y002716D02*
X021940Y002716D01*
X021911Y002558D02*
X028920Y002558D01*
X028920Y002399D02*
X014940Y002399D01*
X014940Y002241D02*
X028920Y002241D01*
X028920Y002082D02*
X014940Y002082D01*
X014940Y001924D02*
X027937Y001924D01*
X027662Y001765D02*
X014940Y001765D01*
X014931Y001607D02*
X027512Y001607D01*
X027447Y001448D02*
X014799Y001448D01*
X014420Y002082D02*
X010957Y002082D01*
X009940Y002241D02*
X014420Y002241D01*
X014420Y002399D02*
X009940Y002399D01*
X009940Y002558D02*
X014420Y002558D01*
X014420Y002716D02*
X009940Y002716D01*
X009940Y002875D02*
X014420Y002875D01*
X014420Y003033D02*
X009940Y003033D01*
X009940Y003192D02*
X014420Y003192D01*
X014420Y003350D02*
X013117Y003350D01*
X013117Y003348D02*
X013012Y003243D01*
X012348Y003243D01*
X012243Y003348D01*
X012243Y004012D01*
X012348Y004117D01*
X013012Y004117D01*
X013117Y004012D01*
X013117Y003348D01*
X013117Y003509D02*
X014420Y003509D01*
X014420Y003667D02*
X013117Y003667D01*
X013117Y003826D02*
X014420Y003826D01*
X014420Y003984D02*
X013117Y003984D01*
X013071Y004301D02*
X014420Y004301D01*
X014420Y004143D02*
X009940Y004143D01*
X009940Y004301D02*
X012289Y004301D01*
X012243Y004460D02*
X009940Y004460D01*
X009940Y004618D02*
X012243Y004618D01*
X012243Y004777D02*
X011045Y004777D01*
X011048Y004778D02*
X011082Y004812D01*
X011105Y004853D01*
X011117Y004899D01*
X011117Y005180D01*
X010680Y005180D01*
X010680Y007680D01*
X009180Y007680D01*
X009617Y007680D01*
X009180Y007680D01*
X009180Y007680D01*
X009180Y007680D01*
X009180Y008117D01*
X009461Y008117D01*
X009507Y008105D01*
X009548Y008082D01*
X009582Y008048D01*
X009605Y008007D01*
X009617Y007961D01*
X009617Y007680D01*
X009617Y007399D01*
X009605Y007353D01*
X009582Y007312D01*
X009548Y007278D01*
X009507Y007255D01*
X009461Y007243D01*
X009180Y007243D01*
X009180Y007680D01*
X009180Y007680D01*
X009180Y007680D01*
X008743Y007680D01*
X008743Y007399D01*
X008755Y007353D01*
X008778Y007312D01*
X008812Y007278D01*
X008853Y007255D01*
X008899Y007243D01*
X009180Y007243D01*
X009180Y007680D01*
X009180Y008117D01*
X008899Y008117D01*
X008853Y008105D01*
X008812Y008082D01*
X008778Y008048D01*
X008755Y008007D01*
X008743Y007961D01*
X008743Y007680D01*
X009180Y007680D01*
X009180Y007630D02*
X009180Y007630D01*
X009180Y007788D02*
X009180Y007788D01*
X009180Y007947D02*
X009180Y007947D01*
X009180Y008105D02*
X009180Y008105D01*
X008853Y008105D02*
X005940Y008105D01*
X005940Y007947D02*
X008743Y007947D01*
X008743Y007788D02*
X005940Y007788D01*
X005940Y007630D02*
X008743Y007630D01*
X008743Y007471D02*
X005940Y007471D01*
X005940Y007313D02*
X008778Y007313D01*
X009180Y007313D02*
X009180Y007313D01*
X009180Y007471D02*
X009180Y007471D01*
X009582Y007313D02*
X010920Y007313D01*
X010920Y007471D02*
X009617Y007471D01*
X009617Y007630D02*
X010920Y007630D01*
X010920Y007788D02*
X009617Y007788D01*
X009617Y007947D02*
X010564Y007947D01*
X010430Y008105D02*
X009507Y008105D01*
X009512Y008243D02*
X009617Y008348D01*
X009617Y009012D01*
X009512Y009117D01*
X008848Y009117D01*
X008743Y009012D01*
X008743Y008348D01*
X008848Y008243D01*
X009512Y008243D01*
X009533Y008264D02*
X010420Y008264D01*
X010420Y008422D02*
X009617Y008422D01*
X009617Y008581D02*
X010420Y008581D01*
X010420Y008739D02*
X009617Y008739D01*
X009617Y008898D02*
X010420Y008898D01*
X010420Y009056D02*
X009574Y009056D01*
X009512Y009243D02*
X009617Y009348D01*
X009617Y010012D01*
X009512Y010117D01*
X008848Y010117D01*
X008743Y010012D01*
X008743Y009348D01*
X008848Y009243D01*
X009512Y009243D01*
X009617Y009373D02*
X010420Y009373D01*
X010420Y009215D02*
X005940Y009215D01*
X005940Y009373D02*
X008743Y009373D01*
X008743Y009532D02*
X005940Y009532D01*
X005940Y009690D02*
X008743Y009690D01*
X008743Y009849D02*
X005940Y009849D01*
X005940Y010007D02*
X008743Y010007D01*
X008848Y010243D02*
X009512Y010243D01*
X009617Y010348D01*
X009617Y011012D01*
X009512Y011117D01*
X008848Y011117D01*
X008743Y011012D01*
X008743Y010348D01*
X008848Y010243D01*
X008766Y010324D02*
X005940Y010324D01*
X005940Y010166D02*
X010420Y010166D01*
X010420Y010324D02*
X009594Y010324D01*
X009617Y010483D02*
X010420Y010483D01*
X010420Y010641D02*
X009617Y010641D01*
X009617Y010800D02*
X010420Y010800D01*
X010420Y010958D02*
X009617Y010958D01*
X009513Y011117D02*
X010420Y011117D01*
X010420Y011275D02*
X009545Y011275D01*
X009512Y011243D02*
X009617Y011348D01*
X009617Y012012D01*
X009512Y012117D01*
X008848Y012117D01*
X008743Y012012D01*
X008743Y011348D01*
X008848Y011243D01*
X009512Y011243D01*
X009617Y011434D02*
X010420Y011434D01*
X010420Y011592D02*
X009617Y011592D01*
X009617Y011751D02*
X010420Y011751D01*
X010420Y011909D02*
X009617Y011909D01*
X009562Y012068D02*
X010420Y012068D01*
X010420Y012226D02*
X005940Y012226D01*
X005940Y012068D02*
X008798Y012068D01*
X008743Y011909D02*
X005940Y011909D01*
X005940Y011751D02*
X008743Y011751D01*
X008743Y011592D02*
X005940Y011592D01*
X005940Y011434D02*
X008743Y011434D01*
X008815Y011275D02*
X005940Y011275D01*
X005940Y011117D02*
X008847Y011117D01*
X008743Y010958D02*
X005940Y010958D01*
X005940Y010800D02*
X008743Y010800D01*
X008743Y010641D02*
X005940Y010641D01*
X005940Y010483D02*
X008743Y010483D01*
X009617Y010007D02*
X010420Y010007D01*
X010420Y009849D02*
X009617Y009849D01*
X009617Y009690D02*
X010420Y009690D01*
X010420Y009532D02*
X009617Y009532D01*
X008786Y009056D02*
X005940Y009056D01*
X005940Y008898D02*
X008743Y008898D01*
X008743Y008739D02*
X005940Y008739D01*
X005940Y008581D02*
X008743Y008581D01*
X008743Y008422D02*
X005940Y008422D01*
X005940Y008264D02*
X008827Y008264D01*
X010680Y008180D02*
X011180Y008180D01*
X011180Y006180D01*
X012680Y006180D01*
X012680Y005680D01*
X013117Y005728D02*
X013420Y005728D01*
X013420Y005886D02*
X013117Y005886D01*
X013085Y006045D02*
X013420Y006045D01*
X013420Y006203D02*
X012940Y006203D01*
X013117Y006362D02*
X013420Y006362D01*
X013420Y006520D02*
X013117Y006520D01*
X012243Y005886D02*
X005940Y005886D01*
X005940Y005728D02*
X012243Y005728D01*
X012243Y005569D02*
X011061Y005569D01*
X011048Y005582D02*
X011007Y005605D01*
X010961Y005617D01*
X010680Y005617D01*
X010399Y005617D01*
X010353Y005605D01*
X010312Y005582D01*
X010278Y005548D01*
X010255Y005507D01*
X010243Y005461D01*
X010243Y005180D01*
X010243Y004899D01*
X010255Y004853D01*
X010278Y004812D01*
X010312Y004778D01*
X010353Y004755D01*
X010399Y004743D01*
X010680Y004743D01*
X010961Y004743D01*
X011007Y004755D01*
X011048Y004778D01*
X011117Y004935D02*
X012243Y004935D01*
X012324Y005094D02*
X011117Y005094D01*
X011117Y005180D02*
X010680Y005180D01*
X010680Y005180D01*
X010680Y005617D01*
X010680Y005180D01*
X010680Y005180D01*
X010680Y005180D01*
X010243Y005180D01*
X010680Y005180D01*
X010680Y004743D01*
X010680Y005180D01*
X010680Y005180D01*
X010680Y005252D02*
X010680Y005252D01*
X010680Y005094D02*
X010680Y005094D01*
X010680Y004935D02*
X010680Y004935D01*
X010680Y004777D02*
X010680Y004777D01*
X010315Y004777D02*
X010046Y004777D01*
X010117Y004935D02*
X010243Y004935D01*
X010243Y005094D02*
X010117Y005094D01*
X010117Y005252D02*
X010243Y005252D01*
X010243Y005411D02*
X010117Y005411D01*
X010061Y005569D02*
X010299Y005569D01*
X010680Y005569D02*
X010680Y005569D01*
X010680Y005411D02*
X010680Y005411D01*
X011048Y005582D02*
X011082Y005548D01*
X011105Y005507D01*
X011117Y005461D01*
X011117Y005180D01*
X011117Y005252D02*
X012338Y005252D01*
X012243Y005411D02*
X011117Y005411D01*
X010955Y006045D02*
X005940Y006045D01*
X005940Y006203D02*
X010920Y006203D01*
X010920Y006362D02*
X005940Y006362D01*
X005940Y006520D02*
X010920Y006520D01*
X010920Y006679D02*
X005940Y006679D01*
X005940Y006837D02*
X010920Y006837D01*
X010920Y006996D02*
X005940Y006996D01*
X005940Y007154D02*
X010920Y007154D01*
X012223Y007947D02*
X012243Y007947D01*
X012335Y008105D02*
X012128Y008105D01*
X012033Y008264D02*
X012327Y008264D01*
X012243Y008422D02*
X011938Y008422D01*
X011843Y008581D02*
X012243Y008581D01*
X012243Y008739D02*
X011748Y008739D01*
X011653Y008898D02*
X012243Y008898D01*
X012286Y009056D02*
X011558Y009056D01*
X010680Y008180D02*
X010680Y014680D01*
X010293Y014445D02*
X008067Y014445D01*
X008120Y014498D02*
X008120Y014862D01*
X007862Y015120D01*
X007498Y015120D01*
X007318Y014940D01*
X005117Y014940D01*
X005117Y015012D01*
X005012Y015117D01*
X004348Y015117D01*
X004243Y015012D01*
X004243Y014348D01*
X004348Y014243D01*
X005012Y014243D01*
X005117Y014348D01*
X005117Y014420D01*
X007318Y014420D01*
X007498Y014240D01*
X007862Y014240D01*
X008120Y014498D01*
X008120Y014604D02*
X010240Y014604D01*
X010240Y014762D02*
X008120Y014762D01*
X008062Y014921D02*
X010298Y014921D01*
X010457Y015079D02*
X007903Y015079D01*
X007457Y015079D02*
X005050Y015079D01*
X004680Y014680D02*
X007680Y014680D01*
X007451Y014287D02*
X005056Y014287D01*
X004304Y014287D02*
X000440Y014287D01*
X000440Y014445D02*
X004243Y014445D01*
X004243Y014604D02*
X000440Y014604D01*
X000440Y014762D02*
X004243Y014762D01*
X004243Y014921D02*
X000440Y014921D01*
X000440Y015079D02*
X004310Y015079D01*
X005533Y012900D02*
X005628Y012940D01*
X008743Y012940D01*
X008743Y013012D01*
X008848Y013117D01*
X009512Y013117D01*
X009617Y013012D01*
X009617Y012348D01*
X009512Y012243D01*
X008848Y012243D01*
X008743Y012348D01*
X008743Y012420D01*
X005940Y012420D01*
X005940Y004440D01*
X007743Y004440D01*
X007743Y004512D01*
X007848Y004617D01*
X008512Y004617D01*
X008617Y004512D01*
X008617Y003848D01*
X008512Y003743D01*
X007848Y003743D01*
X007743Y003848D01*
X007743Y003920D01*
X005628Y003920D01*
X005533Y003960D01*
X005460Y004033D01*
X005420Y004128D01*
X005420Y012732D01*
X005460Y012827D01*
X005533Y012900D01*
X005492Y012860D02*
X000440Y012860D01*
X000440Y012702D02*
X005420Y012702D01*
X005420Y012543D02*
X000440Y012543D01*
X000440Y012385D02*
X005420Y012385D01*
X005420Y012226D02*
X000440Y012226D01*
X000440Y012068D02*
X005420Y012068D01*
X005420Y011909D02*
X000440Y011909D01*
X000440Y011751D02*
X005420Y011751D01*
X005420Y011592D02*
X000440Y011592D01*
X000440Y011434D02*
X005420Y011434D01*
X005420Y011275D02*
X000440Y011275D01*
X000440Y011117D02*
X005420Y011117D01*
X005420Y010958D02*
X000440Y010958D01*
X000440Y010800D02*
X005420Y010800D01*
X005420Y010641D02*
X000440Y010641D01*
X000440Y010483D02*
X005420Y010483D01*
X005420Y010324D02*
X000440Y010324D01*
X000440Y010166D02*
X005420Y010166D01*
X005420Y010007D02*
X000440Y010007D01*
X000440Y009849D02*
X005420Y009849D01*
X005420Y009690D02*
X000440Y009690D01*
X000440Y009532D02*
X005420Y009532D01*
X005420Y009373D02*
X000440Y009373D01*
X000440Y009215D02*
X005420Y009215D01*
X005420Y009056D02*
X000440Y009056D01*
X000440Y008898D02*
X005420Y008898D01*
X005420Y008739D02*
X000440Y008739D01*
X000440Y008581D02*
X005420Y008581D01*
X005420Y008422D02*
X000440Y008422D01*
X000440Y008264D02*
X005420Y008264D01*
X005420Y008105D02*
X000440Y008105D01*
X000440Y007947D02*
X005420Y007947D01*
X005420Y007788D02*
X000440Y007788D01*
X000440Y007630D02*
X005420Y007630D01*
X005420Y007471D02*
X000440Y007471D01*
X000440Y007313D02*
X005420Y007313D01*
X005420Y007154D02*
X000440Y007154D01*
X000440Y006996D02*
X005420Y006996D01*
X005420Y006837D02*
X000440Y006837D01*
X000440Y006679D02*
X005420Y006679D01*
X005420Y006520D02*
X000440Y006520D01*
X000440Y006362D02*
X005420Y006362D01*
X005420Y006203D02*
X000440Y006203D01*
X000440Y006045D02*
X005420Y006045D01*
X005420Y005886D02*
X000440Y005886D01*
X000440Y005728D02*
X005420Y005728D01*
X005420Y005569D02*
X000440Y005569D01*
X000440Y005411D02*
X005420Y005411D01*
X005420Y005252D02*
X000440Y005252D01*
X000440Y005094D02*
X005420Y005094D01*
X005420Y004935D02*
X000440Y004935D01*
X000440Y004777D02*
X005420Y004777D01*
X005420Y004618D02*
X000440Y004618D01*
X000440Y004460D02*
X005420Y004460D01*
X005420Y004301D02*
X000440Y004301D01*
X000440Y004143D02*
X005420Y004143D01*
X005508Y003984D02*
X000440Y003984D01*
X000440Y003826D02*
X007765Y003826D01*
X007853Y003605D02*
X007812Y003582D01*
X007778Y003548D01*
X007755Y003507D01*
X007743Y003461D01*
X007743Y003180D01*
X007743Y002899D01*
X007755Y002853D01*
X007778Y002812D01*
X007812Y002778D01*
X007853Y002755D01*
X007899Y002743D01*
X008180Y002743D01*
X008461Y002743D01*
X008507Y002755D01*
X008548Y002778D01*
X008582Y002812D01*
X008605Y002853D01*
X008617Y002899D01*
X008617Y003180D01*
X008180Y003180D01*
X008180Y003180D01*
X008180Y003617D01*
X007899Y003617D01*
X007853Y003605D01*
X007756Y003509D02*
X000440Y003509D01*
X000440Y003667D02*
X009420Y003667D01*
X009420Y003509D02*
X008604Y003509D01*
X008605Y003507D02*
X008582Y003548D01*
X008548Y003582D01*
X008507Y003605D01*
X008461Y003617D01*
X008180Y003617D01*
X008180Y003180D01*
X008617Y003180D01*
X008617Y003461D01*
X008605Y003507D01*
X008617Y003350D02*
X009420Y003350D01*
X009420Y003192D02*
X008617Y003192D01*
X008617Y003033D02*
X009420Y003033D01*
X009420Y002875D02*
X008611Y002875D01*
X008180Y002875D02*
X008180Y002875D01*
X008180Y002743D02*
X008180Y003180D01*
X008180Y003180D01*
X008180Y003180D01*
X007743Y003180D01*
X008180Y003180D01*
X008180Y003180D01*
X008180Y002743D01*
X007749Y002875D02*
X000440Y002875D01*
X000440Y003033D02*
X007743Y003033D01*
X007743Y003192D02*
X000440Y003192D01*
X000440Y003350D02*
X007743Y003350D01*
X008180Y003350D02*
X008180Y003350D01*
X008180Y003192D02*
X008180Y003192D01*
X008180Y003033D02*
X008180Y003033D01*
X008180Y003509D02*
X008180Y003509D01*
X008595Y003826D02*
X009420Y003826D01*
X009420Y003984D02*
X008617Y003984D01*
X008617Y004143D02*
X009420Y004143D01*
X009420Y004301D02*
X008617Y004301D01*
X008617Y004460D02*
X009420Y004460D01*
X009420Y004618D02*
X005940Y004618D01*
X005940Y004460D02*
X007743Y004460D01*
X008180Y004180D02*
X005680Y004180D01*
X005680Y012680D01*
X009180Y012680D01*
X009617Y012702D02*
X010420Y012702D01*
X010420Y012860D02*
X009617Y012860D01*
X009611Y013019D02*
X010420Y013019D01*
X010420Y013177D02*
X000440Y013177D01*
X000440Y013019D02*
X008749Y013019D01*
X008743Y012385D02*
X005940Y012385D01*
X007909Y014287D02*
X010420Y014287D01*
X010420Y014128D02*
X000440Y014128D01*
X000440Y013970D02*
X010420Y013970D01*
X010420Y013811D02*
X000440Y013811D01*
X000440Y013653D02*
X010420Y013653D01*
X010420Y013494D02*
X000440Y013494D01*
X000440Y013336D02*
X010420Y013336D01*
X010420Y012543D02*
X009617Y012543D01*
X009617Y012385D02*
X010420Y012385D01*
X011940Y013336D02*
X012255Y013336D01*
X012243Y013494D02*
X011940Y013494D01*
X011940Y014287D02*
X012304Y014287D01*
X012243Y014445D02*
X011940Y014445D01*
X011940Y014604D02*
X012243Y014604D01*
X012243Y014762D02*
X011940Y014762D01*
X011940Y014921D02*
X012243Y014921D01*
X012310Y015079D02*
X011940Y015079D01*
X010920Y015079D02*
X010903Y015079D01*
X010366Y015872D02*
X007994Y015872D01*
X008120Y016030D02*
X010240Y016030D01*
X010977Y016506D02*
X011420Y016506D01*
X011420Y016347D02*
X011381Y016347D01*
X011420Y017140D02*
X000440Y017140D01*
X000440Y017298D02*
X004292Y017298D01*
X004243Y017457D02*
X000440Y017457D01*
X000440Y017615D02*
X004243Y017615D01*
X004243Y017774D02*
X000440Y017774D01*
X000440Y017932D02*
X000948Y017932D01*
X000666Y018091D02*
X000440Y018091D01*
X000440Y018249D02*
X000514Y018249D01*
X000449Y018408D02*
X000440Y018408D01*
X001412Y017932D02*
X004243Y017932D01*
X004321Y018091D02*
X001694Y018091D01*
X004680Y017680D02*
X007680Y017680D01*
X007440Y017298D02*
X005068Y017298D01*
X005039Y018091D02*
X007468Y018091D01*
X010920Y017298D02*
X011420Y017298D01*
X013117Y015396D02*
X015243Y015396D01*
X015310Y015079D02*
X013050Y015079D01*
X013117Y014921D02*
X015243Y014921D01*
X015243Y014762D02*
X013117Y014762D01*
X013117Y014604D02*
X015243Y014604D01*
X015243Y014445D02*
X013117Y014445D01*
X015680Y007680D02*
X023180Y007680D01*
X022920Y007313D02*
X016082Y007313D01*
X015243Y006996D02*
X014940Y006996D01*
X014940Y006837D02*
X015243Y006837D01*
X015243Y006679D02*
X014940Y006679D01*
X014940Y006520D02*
X015243Y006520D01*
X015243Y006362D02*
X014940Y006362D01*
X016117Y005886D02*
X019518Y005886D01*
X019420Y005728D02*
X016117Y005728D01*
X016117Y005569D02*
X019420Y005569D01*
X019420Y005411D02*
X016117Y005411D01*
X016022Y005252D02*
X019420Y005252D01*
X019420Y005094D02*
X016036Y005094D01*
X015680Y004680D02*
X019680Y004680D01*
X019680Y005680D01*
X021680Y005680D01*
X021680Y004680D01*
X021243Y004618D02*
X021117Y004618D01*
X021117Y004460D02*
X021243Y004460D01*
X021289Y004301D02*
X021071Y004301D01*
X021117Y004348D02*
X021117Y005012D01*
X021012Y005117D01*
X020348Y005117D01*
X020243Y005012D01*
X020243Y004348D01*
X020348Y004243D01*
X021012Y004243D01*
X021117Y004348D01*
X021007Y004105D02*
X020961Y004117D01*
X020680Y004117D01*
X020680Y003680D01*
X020680Y003680D01*
X021117Y003680D01*
X021117Y003961D01*
X021105Y004007D01*
X021082Y004048D01*
X021048Y004082D01*
X021007Y004105D01*
X021111Y003984D02*
X021243Y003984D01*
X021243Y003826D02*
X021117Y003826D01*
X021117Y003680D02*
X020680Y003680D01*
X020680Y003680D01*
X020680Y004117D01*
X020399Y004117D01*
X020353Y004105D01*
X020312Y004082D01*
X020278Y004048D01*
X020255Y004007D01*
X020243Y003961D01*
X020243Y003680D01*
X020243Y003399D01*
X020255Y003353D01*
X020278Y003312D01*
X020312Y003278D01*
X020353Y003255D01*
X020399Y003243D01*
X020680Y003243D01*
X020961Y003243D01*
X021007Y003255D01*
X021048Y003278D01*
X021082Y003312D01*
X021105Y003353D01*
X021117Y003399D01*
X021117Y003680D01*
X021117Y003667D02*
X021243Y003667D01*
X021243Y003509D02*
X021117Y003509D01*
X021103Y003350D02*
X021243Y003350D01*
X021420Y003192D02*
X018940Y003192D01*
X018940Y003350D02*
X020257Y003350D01*
X020243Y003509D02*
X018940Y003509D01*
X018940Y003667D02*
X020243Y003667D01*
X020243Y003680D02*
X020680Y003680D01*
X020680Y003243D01*
X020680Y003680D01*
X020680Y003680D01*
X020680Y003680D01*
X020243Y003680D01*
X020243Y003826D02*
X018901Y003826D01*
X018680Y003680D02*
X018680Y002680D01*
X021680Y002680D01*
X021680Y003680D01*
X022117Y003826D02*
X022243Y003826D01*
X022243Y003984D02*
X022117Y003984D01*
X022071Y004301D02*
X022289Y004301D01*
X022243Y004460D02*
X022117Y004460D01*
X022117Y004618D02*
X022243Y004618D01*
X022243Y004777D02*
X022117Y004777D01*
X022117Y004935D02*
X022243Y004935D01*
X022324Y005094D02*
X022036Y005094D01*
X021940Y005252D02*
X022920Y005252D01*
X022920Y005411D02*
X021940Y005411D01*
X021940Y005569D02*
X022920Y005569D01*
X022920Y005728D02*
X021940Y005728D01*
X021842Y005886D02*
X022920Y005886D01*
X021420Y005411D02*
X019940Y005411D01*
X019940Y005252D02*
X021420Y005252D01*
X021324Y005094D02*
X021036Y005094D01*
X021117Y004935D02*
X021243Y004935D01*
X021243Y004777D02*
X021117Y004777D01*
X020324Y005094D02*
X019940Y005094D01*
X019940Y004935D02*
X020243Y004935D01*
X020243Y004777D02*
X019940Y004777D01*
X019936Y004618D02*
X020243Y004618D01*
X020243Y004460D02*
X019827Y004460D01*
X020289Y004301D02*
X016071Y004301D01*
X016117Y003984D02*
X020249Y003984D01*
X020680Y003984D02*
X020680Y003984D01*
X020680Y003826D02*
X020680Y003826D01*
X020680Y003667D02*
X020680Y003667D01*
X020680Y003509D02*
X020680Y003509D01*
X020680Y003350D02*
X020680Y003350D01*
X021420Y003033D02*
X018940Y003033D01*
X018420Y003033D02*
X014940Y003033D01*
X014940Y002875D02*
X018420Y002875D01*
X018420Y002716D02*
X014940Y002716D01*
X014940Y002558D02*
X018449Y002558D01*
X018420Y003192D02*
X014940Y003192D01*
X014940Y003350D02*
X015243Y003350D01*
X015243Y003509D02*
X014940Y003509D01*
X014940Y003667D02*
X015243Y003667D01*
X015243Y003826D02*
X014940Y003826D01*
X014940Y003984D02*
X015243Y003984D01*
X015680Y003680D02*
X018680Y003680D01*
X018420Y003350D02*
X016117Y003350D01*
X013680Y004680D02*
X012680Y004680D01*
X013036Y005094D02*
X013420Y005094D01*
X013420Y005252D02*
X013022Y005252D01*
X013117Y005411D02*
X013420Y005411D01*
X013420Y005569D02*
X013117Y005569D01*
X012243Y003984D02*
X009940Y003984D01*
X009940Y003826D02*
X012243Y003826D01*
X012243Y003667D02*
X009940Y003667D01*
X009940Y003509D02*
X012243Y003509D01*
X012243Y003350D02*
X009940Y003350D01*
X009420Y002716D02*
X000440Y002716D01*
X000440Y002558D02*
X009420Y002558D01*
X009420Y002399D02*
X000440Y002399D01*
X000440Y002241D02*
X009420Y002241D01*
X009403Y002082D02*
X000440Y002082D01*
X000440Y001924D02*
X000937Y001924D01*
X000662Y001765D02*
X000440Y001765D01*
X000440Y001607D02*
X000512Y001607D01*
X000447Y001448D02*
X000440Y001448D01*
X001423Y001924D02*
X009245Y001924D01*
X009200Y001765D02*
X001698Y001765D01*
X001848Y001607D02*
X009200Y001607D01*
X009233Y001448D02*
X001913Y001448D01*
X001960Y001290D02*
X009392Y001290D01*
X009680Y001680D02*
X009680Y005180D01*
X008180Y005180D01*
X007743Y005252D02*
X005940Y005252D01*
X005940Y005094D02*
X007743Y005094D01*
X007743Y004935D02*
X005940Y004935D01*
X005940Y004777D02*
X007814Y004777D01*
X007743Y005411D02*
X005940Y005411D01*
X005940Y005569D02*
X007799Y005569D01*
X008561Y005569D02*
X009299Y005569D01*
X009314Y004777D02*
X008546Y004777D01*
X023117Y003350D02*
X023243Y003350D01*
X028423Y001924D02*
X028920Y001924D01*
X028920Y001765D02*
X028698Y001765D01*
X028848Y001607D02*
X028920Y001607D01*
X028913Y001448D02*
X028920Y001448D01*
D13*
X023680Y003680D03*
X022680Y003680D03*
X021680Y003680D03*
X020680Y003680D03*
X020680Y004680D03*
X021680Y004680D03*
X022680Y004680D03*
X023680Y004680D03*
X015680Y004680D03*
X015680Y003680D03*
X015680Y005680D03*
X015680Y006680D03*
X015680Y007680D03*
X015680Y008680D03*
X015680Y009680D03*
X015680Y010680D03*
X015680Y011680D03*
X015680Y012680D03*
X015680Y013680D03*
X015680Y014680D03*
X015680Y015680D03*
X015680Y016680D03*
X017908Y016180D03*
X019680Y016180D03*
X022680Y017180D03*
X023680Y017180D03*
X024680Y017180D03*
X025680Y017180D03*
X019680Y018739D03*
X017908Y018739D03*
X012680Y016680D03*
X012680Y015680D03*
X012680Y014680D03*
X012680Y013680D03*
X012680Y012680D03*
X012680Y011680D03*
X012680Y010680D03*
X012680Y009680D03*
X012680Y008680D03*
X012680Y007680D03*
X012680Y006680D03*
X012680Y005680D03*
X012680Y004680D03*
X012680Y003680D03*
X010680Y005180D03*
X009680Y005180D03*
X008180Y005180D03*
X008180Y004180D03*
X008180Y003180D03*
X009180Y007680D03*
X009180Y008680D03*
X009180Y009680D03*
X009180Y010680D03*
X009180Y011680D03*
X009180Y012680D03*
X004680Y014680D03*
X004680Y015680D03*
X004680Y016680D03*
X004680Y017680D03*
D14*
X007680Y017680D03*
X007680Y016180D03*
X007680Y014680D03*
X010680Y014680D03*
X010680Y016180D03*
X010680Y017680D03*
X017680Y014680D03*
X019180Y012680D03*
X017680Y011680D03*
X019180Y009680D03*
D15*
X010680Y001680D03*
X009680Y001680D03*
D16*
X013680Y009180D03*
X016680Y009180D03*
M02*
