%
M48
M72
T01C0.0236
T02C0.0315
T03C0.0320
T04C0.0400
T05C0.1200
%
T01
X13680Y9180
X16680Y9180
T02
X4680Y17680
X4680Y16680
X4680Y15680
X4680Y14680
X9180Y12680
X9180Y11680
X9180Y10680
X9180Y9680
X9180Y8680
X9180Y7680
X9680Y5180
X10680Y5180
X12680Y4680
X12680Y3680
X12680Y5680
X12680Y6680
X12680Y7680
X12680Y8680
X12680Y9680
X12680Y10680
X12680Y11680
X12680Y12680
X12680Y13680
X12680Y14680
X12680Y15680
X12680Y16680
X15680Y16680
X15680Y15680
X15680Y14680
X15680Y13680
X15680Y12680
X15680Y11680
X15680Y10680
X15680Y9680
X15680Y8680
X15680Y7680
X15680Y6680
X15680Y5680
X15680Y4680
X15680Y3680
X20680Y3680
X21680Y3680
X22680Y3680
X23680Y3680
X23680Y4680
X22680Y4680
X21680Y4680
X20680Y4680
X8180Y3180
X8180Y4180
X8180Y5180
X17908Y16180
X19680Y16180
X22680Y17180
X23680Y17180
X24680Y17180
X25680Y17180
X19680Y18739
X17908Y18739
T03
X7680Y17680
X7680Y16180
X7680Y14680
X10680Y14680
X10680Y16180
X10680Y17680
X17680Y14680
X19180Y12680
X17680Y11680
X19180Y9680
T04
X9680Y1680
X10680Y1680
T05
X1180Y18680
X1180Y1180
X28180Y1180
X28180Y18680
M30
