G75*
%MOIN*%
%OFA0B0*%
%FSLAX24Y24*%
%IPPOS*%
%LPD*%
%AMOC8*
5,1,8,0,0,1.08239X$1,22.5*
%
%ADD10C,0.0000*%
D10*
X000580Y001180D02*
X000582Y001229D01*
X000588Y001277D01*
X000598Y001325D01*
X000612Y001372D01*
X000629Y001418D01*
X000650Y001462D01*
X000675Y001504D01*
X000703Y001544D01*
X000735Y001582D01*
X000769Y001617D01*
X000806Y001649D01*
X000845Y001678D01*
X000887Y001704D01*
X000931Y001726D01*
X000976Y001744D01*
X001023Y001759D01*
X001070Y001770D01*
X001119Y001777D01*
X001168Y001780D01*
X001217Y001779D01*
X001265Y001774D01*
X001314Y001765D01*
X001361Y001752D01*
X001407Y001735D01*
X001451Y001715D01*
X001494Y001691D01*
X001535Y001664D01*
X001573Y001633D01*
X001609Y001600D01*
X001641Y001564D01*
X001671Y001525D01*
X001698Y001484D01*
X001721Y001440D01*
X001740Y001395D01*
X001756Y001349D01*
X001768Y001302D01*
X001776Y001253D01*
X001780Y001204D01*
X001780Y001156D01*
X001776Y001107D01*
X001768Y001058D01*
X001756Y001011D01*
X001740Y000965D01*
X001721Y000920D01*
X001698Y000876D01*
X001671Y000835D01*
X001641Y000796D01*
X001609Y000760D01*
X001573Y000727D01*
X001535Y000696D01*
X001494Y000669D01*
X001451Y000645D01*
X001407Y000625D01*
X001361Y000608D01*
X001314Y000595D01*
X001265Y000586D01*
X001217Y000581D01*
X001168Y000580D01*
X001119Y000583D01*
X001070Y000590D01*
X001023Y000601D01*
X000976Y000616D01*
X000931Y000634D01*
X000887Y000656D01*
X000845Y000682D01*
X000806Y000711D01*
X000769Y000743D01*
X000735Y000778D01*
X000703Y000816D01*
X000675Y000856D01*
X000650Y000898D01*
X000629Y000942D01*
X000612Y000988D01*
X000598Y001035D01*
X000588Y001083D01*
X000582Y001131D01*
X000580Y001180D01*
X000580Y018680D02*
X000582Y018729D01*
X000588Y018777D01*
X000598Y018825D01*
X000612Y018872D01*
X000629Y018918D01*
X000650Y018962D01*
X000675Y019004D01*
X000703Y019044D01*
X000735Y019082D01*
X000769Y019117D01*
X000806Y019149D01*
X000845Y019178D01*
X000887Y019204D01*
X000931Y019226D01*
X000976Y019244D01*
X001023Y019259D01*
X001070Y019270D01*
X001119Y019277D01*
X001168Y019280D01*
X001217Y019279D01*
X001265Y019274D01*
X001314Y019265D01*
X001361Y019252D01*
X001407Y019235D01*
X001451Y019215D01*
X001494Y019191D01*
X001535Y019164D01*
X001573Y019133D01*
X001609Y019100D01*
X001641Y019064D01*
X001671Y019025D01*
X001698Y018984D01*
X001721Y018940D01*
X001740Y018895D01*
X001756Y018849D01*
X001768Y018802D01*
X001776Y018753D01*
X001780Y018704D01*
X001780Y018656D01*
X001776Y018607D01*
X001768Y018558D01*
X001756Y018511D01*
X001740Y018465D01*
X001721Y018420D01*
X001698Y018376D01*
X001671Y018335D01*
X001641Y018296D01*
X001609Y018260D01*
X001573Y018227D01*
X001535Y018196D01*
X001494Y018169D01*
X001451Y018145D01*
X001407Y018125D01*
X001361Y018108D01*
X001314Y018095D01*
X001265Y018086D01*
X001217Y018081D01*
X001168Y018080D01*
X001119Y018083D01*
X001070Y018090D01*
X001023Y018101D01*
X000976Y018116D01*
X000931Y018134D01*
X000887Y018156D01*
X000845Y018182D01*
X000806Y018211D01*
X000769Y018243D01*
X000735Y018278D01*
X000703Y018316D01*
X000675Y018356D01*
X000650Y018398D01*
X000629Y018442D01*
X000612Y018488D01*
X000598Y018535D01*
X000588Y018583D01*
X000582Y018631D01*
X000580Y018680D01*
X027580Y018680D02*
X027582Y018729D01*
X027588Y018777D01*
X027598Y018825D01*
X027612Y018872D01*
X027629Y018918D01*
X027650Y018962D01*
X027675Y019004D01*
X027703Y019044D01*
X027735Y019082D01*
X027769Y019117D01*
X027806Y019149D01*
X027845Y019178D01*
X027887Y019204D01*
X027931Y019226D01*
X027976Y019244D01*
X028023Y019259D01*
X028070Y019270D01*
X028119Y019277D01*
X028168Y019280D01*
X028217Y019279D01*
X028265Y019274D01*
X028314Y019265D01*
X028361Y019252D01*
X028407Y019235D01*
X028451Y019215D01*
X028494Y019191D01*
X028535Y019164D01*
X028573Y019133D01*
X028609Y019100D01*
X028641Y019064D01*
X028671Y019025D01*
X028698Y018984D01*
X028721Y018940D01*
X028740Y018895D01*
X028756Y018849D01*
X028768Y018802D01*
X028776Y018753D01*
X028780Y018704D01*
X028780Y018656D01*
X028776Y018607D01*
X028768Y018558D01*
X028756Y018511D01*
X028740Y018465D01*
X028721Y018420D01*
X028698Y018376D01*
X028671Y018335D01*
X028641Y018296D01*
X028609Y018260D01*
X028573Y018227D01*
X028535Y018196D01*
X028494Y018169D01*
X028451Y018145D01*
X028407Y018125D01*
X028361Y018108D01*
X028314Y018095D01*
X028265Y018086D01*
X028217Y018081D01*
X028168Y018080D01*
X028119Y018083D01*
X028070Y018090D01*
X028023Y018101D01*
X027976Y018116D01*
X027931Y018134D01*
X027887Y018156D01*
X027845Y018182D01*
X027806Y018211D01*
X027769Y018243D01*
X027735Y018278D01*
X027703Y018316D01*
X027675Y018356D01*
X027650Y018398D01*
X027629Y018442D01*
X027612Y018488D01*
X027598Y018535D01*
X027588Y018583D01*
X027582Y018631D01*
X027580Y018680D01*
X027580Y001180D02*
X027582Y001229D01*
X027588Y001277D01*
X027598Y001325D01*
X027612Y001372D01*
X027629Y001418D01*
X027650Y001462D01*
X027675Y001504D01*
X027703Y001544D01*
X027735Y001582D01*
X027769Y001617D01*
X027806Y001649D01*
X027845Y001678D01*
X027887Y001704D01*
X027931Y001726D01*
X027976Y001744D01*
X028023Y001759D01*
X028070Y001770D01*
X028119Y001777D01*
X028168Y001780D01*
X028217Y001779D01*
X028265Y001774D01*
X028314Y001765D01*
X028361Y001752D01*
X028407Y001735D01*
X028451Y001715D01*
X028494Y001691D01*
X028535Y001664D01*
X028573Y001633D01*
X028609Y001600D01*
X028641Y001564D01*
X028671Y001525D01*
X028698Y001484D01*
X028721Y001440D01*
X028740Y001395D01*
X028756Y001349D01*
X028768Y001302D01*
X028776Y001253D01*
X028780Y001204D01*
X028780Y001156D01*
X028776Y001107D01*
X028768Y001058D01*
X028756Y001011D01*
X028740Y000965D01*
X028721Y000920D01*
X028698Y000876D01*
X028671Y000835D01*
X028641Y000796D01*
X028609Y000760D01*
X028573Y000727D01*
X028535Y000696D01*
X028494Y000669D01*
X028451Y000645D01*
X028407Y000625D01*
X028361Y000608D01*
X028314Y000595D01*
X028265Y000586D01*
X028217Y000581D01*
X028168Y000580D01*
X028119Y000583D01*
X028070Y000590D01*
X028023Y000601D01*
X027976Y000616D01*
X027931Y000634D01*
X027887Y000656D01*
X027845Y000682D01*
X027806Y000711D01*
X027769Y000743D01*
X027735Y000778D01*
X027703Y000816D01*
X027675Y000856D01*
X027650Y000898D01*
X027629Y000942D01*
X027612Y000988D01*
X027598Y001035D01*
X027588Y001083D01*
X027582Y001131D01*
X027580Y001180D01*
M02*
