%
M48
M72
T01C0.0315
%
T01
X2680Y8180
X3680Y8180
X3680Y7180
X2680Y7180
X2680Y6180
X3680Y6180
X3680Y5180
X2680Y5180
X2180Y2180
X1180Y2180
X1180Y1180
X2180Y1180
X3180Y1180
X4180Y1180
X5180Y1180
X6180Y1180
X7180Y1180
X8180Y1180
X9180Y1180
X10180Y1180
X11180Y1180
X12180Y1180
X13180Y1180
X13180Y2180
X12180Y2180
X11180Y2180
X10180Y2180
X9180Y2180
X8180Y2180
X7180Y2180
X6180Y2180
X5180Y2180
X4180Y2180
X3180Y2180
M30
